<svg width="512" height="57" viewBox="0 0 512 57" fill="none" xmlns="http://www.w3.org/2000/svg">
<path d="M27.786 53.5279L27.8256 33.88L5.74567 33.8354L5.70602 53.4834C5.70395 54.5074 5.19092 55.0183 4.16692 55.0163L2.18293 55.0123C1.15893 55.0102 0.647962 54.4972 0.650028 53.4732L0.737338 10.2093C0.739405 9.18526 1.25244 8.6743 2.27643 8.67636L4.26043 8.68037C5.28443 8.68243 5.79539 9.19547 5.79333 10.2195L5.75471 29.3554L27.8347 29.4L27.8733 10.264C27.8754 9.24003 28.3884 8.72906 29.4124 8.73113L31.3964 8.73513C32.4204 8.7372 32.9313 9.25023 32.9293 10.2742L32.842 53.5381C32.8399 54.5621 32.3269 55.0731 31.3029 55.071L29.3189 55.067C28.2949 55.065 27.7839 54.5519 27.786 53.5279ZM48.9972 22.9787L48.9414 50.6266L51.8214 50.6324C52.8454 50.6345 53.3563 51.1475 53.3543 52.1715L53.3514 53.5795C53.3494 54.6035 52.8363 55.1145 51.8123 55.1124L40.9323 55.0905C39.9083 55.0884 39.3974 54.5754 39.3995 53.5514L39.4023 52.1434C39.4044 51.1194 39.9174 50.6084 40.9414 50.6105L43.8854 50.6164L43.9412 22.9685L40.9972 22.9625C39.9732 22.9605 39.4622 22.4474 39.4643 21.4234L39.4671 20.0154C39.4692 18.9914 39.9822 18.4805 41.0062 18.4825L51.8862 18.5045C52.9102 18.5066 53.4212 19.0196 53.4191 20.0436L53.4163 21.4516C53.4142 22.4756 52.9012 22.9866 51.8772 22.9845L48.9972 22.9787ZM46.3889 15.1654C43.5729 15.1597 41.4013 12.9793 41.4066 10.3553C41.4118 7.79534 43.5922 5.62373 46.4082 5.62942C49.0322 5.63471 51.3318 7.81536 51.3266 10.3754C51.3213 12.9993 49.0129 15.1707 46.3889 15.1654ZM85.9164 53.6452L85.9736 25.2933C85.9902 17.0373 82.6066 12.8705 75.8867 12.8569C67.9507 12.8409 65.054 21.0911 65.0454 25.3791L64.9884 53.603C64.9863 54.627 64.4733 55.138 63.4493 55.1359L61.4653 55.1319C60.4413 55.1298 59.9303 54.6168 59.9324 53.5928L60.0197 10.3289C60.0218 9.3049 60.5348 8.79393 61.5588 8.796L63.0948 8.7991C64.1188 8.80117 64.6298 9.3142 64.6277 10.3382L64.6157 16.2902L64.8717 16.2907C65.4522 14.0519 68.4718 8.29795 76.9838 8.31513C81.9118 8.32507 85.4928 9.8043 87.7268 12.8168C89.9608 15.7653 91.0411 19.6075 91.0314 24.4075L90.9723 53.6555C90.9703 54.6795 90.4572 55.1904 89.4333 55.1884L87.4493 55.1843C86.4253 55.1823 85.9143 54.6692 85.9164 53.6452ZM123.785 32.1536C123.811 19.3537 119.984 12.9459 112.304 12.9304C105.456 12.9166 102.627 19.3749 102.601 32.1109C102.576 44.8469 105.763 51.1893 112.227 51.2023C120.483 51.219 123.76 44.5056 123.785 32.1536ZM122.923 15.3199L123.243 15.3205L123.269 2.45652C123.271 1.43253 123.784 0.92156 124.808 0.923627L126.792 0.927631C127.816 0.929697 128.327 1.44273 128.325 2.46673L128.222 53.7306C128.22 54.7546 127.707 55.2656 126.683 55.2635L124.955 55.26C123.931 55.258 123.42 54.7449 123.422 53.7209L123.432 48.7289L123.176 48.7284C121.952 52.502 117.978 55.758 111.898 55.7457C102.362 55.7264 97.6416 47.8449 97.6734 32.1009C97.7053 16.293 102.457 8.36653 111.993 8.38578C118.201 8.39831 121.715 11.2854 122.923 15.3199ZM141.601 10.4935L141.543 38.8455C141.527 47.1015 144.846 51.2682 151.566 51.2817C159.502 51.2977 162.271 43.1113 162.408 38.7596L162.465 10.5356C162.467 9.51164 162.98 9.00068 164.004 9.00274L165.988 9.00675C167.012 9.00881 167.523 9.52185 167.521 10.5458L167.433 53.8098C167.431 54.8338 166.918 55.3447 165.894 55.3427L164.358 55.3396C163.334 55.3375 162.823 54.8245 162.825 53.8005L162.837 47.8485L162.581 47.848C162.001 50.0868 158.981 55.8407 150.469 55.8235C145.541 55.8136 141.96 54.3344 139.726 51.3858C137.556 48.3735 136.476 44.5313 136.486 39.7313L136.545 10.4833C136.547 9.45933 137.06 8.94837 138.084 8.95043L140.068 8.95444C141.092 8.9565 141.603 9.46954 141.601 10.4935ZM188.752 51.4208C195.088 51.4336 198.293 48.752 198.304 43.376C198.329 31.0241 174.894 36.4808 174.926 20.3528C174.933 17.2168 176.09 14.4671 178.399 12.1038C180.772 9.74058 184.166 8.53143 188.71 8.5406C197.67 8.55868 202.525 12.9845 203.215 20.1539C203.276 21.242 202.827 21.8171 201.803 21.9431L200.011 22.1954C198.986 22.3214 198.411 21.8722 198.349 20.9121C197.784 15.7269 194.653 13.0966 188.829 13.0849C182.877 13.0728 179.99 16.267 179.982 20.427C179.959 31.627 203.457 26.8744 203.423 43.8344C203.416 47.3544 202.258 50.232 199.885 52.5312C197.513 54.8305 193.798 55.975 188.614 55.9645C183.494 55.9542 179.529 54.4742 177.422 52.2299C175.379 49.9218 174.359 47.6797 174.044 45.1191C173.918 44.0308 174.368 43.4557 175.392 43.3298L177.12 43.0773C178.209 42.8875 178.784 43.3366 178.91 44.3609C179.478 48.4581 182.672 51.4085 188.752 51.4208ZM216.367 7.06041L216.356 12.5644L227.428 12.5867C228.452 12.5888 228.962 13.1018 228.96 14.1258L228.958 15.5338C228.955 16.5578 228.442 17.0688 227.418 17.0667L216.346 17.0444L216.299 40.3403C216.285 47.7003 219.413 51.4187 225.685 51.4313C226.517 51.433 227.413 51.3708 228.438 51.1809C229.27 50.9905 229.973 51.44 229.971 52.4L229.968 53.936C229.966 55.024 229.453 55.5989 228.428 55.7249C227.212 55.9144 226.124 55.9762 225.164 55.9743C215.884 55.9555 211.222 51.2101 211.241 41.8021L211.29 17.0342L208.667 17.0289C207.643 17.0268 207.132 16.5138 207.134 15.4898L207.136 14.0818C207.139 13.0578 207.652 12.5468 208.676 12.5489L211.3 12.5542L211.311 7.05021C211.313 6.02621 211.826 5.51524 212.85 5.51731L214.834 5.52132C215.858 5.52338 216.369 6.03641 216.367 7.06041ZM248.664 51.4777C252.056 51.4845 254.745 50.53 256.605 48.6777C258.465 46.7615 259.43 44.5234 259.435 41.8994C259.44 39.2754 258.485 37.0335 256.633 35.1097C254.78 33.186 252.094 32.2206 248.702 32.2137C245.63 32.2075 243.197 33.1626 241.465 35.0791C239.733 36.9956 238.832 39.2338 238.827 41.8578C238.822 44.4818 239.713 46.7236 241.437 48.6471C243.162 50.5066 245.592 51.4715 248.664 51.4777ZM264.208 23.605L264.158 48.2449C264.153 50.7409 264.856 51.5104 266.456 51.5136L267.416 51.3875C267.928 51.2606 268.184 51.4531 268.182 52.0291L268.178 54.0131C268.177 54.9731 267.663 55.548 266.703 55.8661C266.126 55.9929 265.422 56.0555 264.526 56.0537C261.39 56.0474 259.667 53.8039 259.674 50.1559L259.675 49.9639L259.483 49.9635C259.29 50.2831 259.289 50.7311 258.07 52.0727C256.595 53.9257 253.455 55.9034 248.27 56.0209C243.982 56.0122 240.465 54.6611 237.719 51.9036C235.036 49.1462 233.699 45.7515 233.707 41.7195C233.715 37.8155 235.066 34.4902 237.759 31.7436C240.517 28.9972 244.04 27.6603 248.392 27.6691C253 27.6784 256.772 29.67 257.984 31.2084L258.878 32.3623L259.134 32.3628L259.151 24.1708C259.165 16.8748 255.845 13.2201 249.189 13.2067C243.109 13.1944 239.775 16.1317 239.187 22.0185C239.121 23.1064 238.544 23.5532 237.584 23.2953L235.857 22.8438C234.898 22.5858 234.515 21.9451 234.581 20.9852C235.238 12.7305 240.174 8.64446 249.326 8.66293C259.246 8.68295 264.228 13.685 264.208 23.605ZM299.201 54.0757L299.258 25.7237C299.275 17.4677 295.891 13.3009 289.171 13.2874C281.235 13.2713 278.339 21.5215 278.33 25.8095L278.273 54.0334C278.271 55.0574 277.758 55.5684 276.734 55.5663L274.75 55.5623C273.726 55.5603 273.215 55.0472 273.217 54.0232L273.304 10.7593C273.306 9.73533 273.819 9.22436 274.843 9.22643L276.379 9.22953C277.403 9.23159 277.914 9.74463 277.912 10.7686L277.9 16.7206L278.156 16.7211C278.737 14.4823 281.756 8.72838 290.268 8.74555C295.196 8.7555 298.777 10.2347 301.011 13.2472C303.245 16.1958 304.326 20.0379 304.316 24.8379L304.257 54.0859C304.255 55.1099 303.742 55.6208 302.718 55.6188L300.734 55.6148C299.71 55.6127 299.199 55.0997 299.201 54.0757ZM320.064 23.5257L320.008 51.1737L322.888 51.1795C323.912 51.1815 324.423 51.6946 324.421 52.7186L324.418 54.1266C324.416 55.1506 323.903 55.6615 322.879 55.6595L311.999 55.6375C310.975 55.6354 310.464 55.1224 310.466 54.0984L310.469 52.6904C310.471 51.6664 310.984 51.1555 312.008 51.1575L314.952 51.1635L315.008 23.5155L312.064 23.5096C311.04 23.5075 310.529 22.9945 310.531 21.9705L310.534 20.5625C310.536 19.5385 311.049 19.0275 312.073 19.0296L322.953 19.0515C323.977 19.0536 324.488 19.5666 324.486 20.5906L324.483 21.9986C324.481 23.0226 323.968 23.5336 322.944 23.5315L320.064 23.5257ZM317.456 15.7124C314.64 15.7068 312.468 13.5264 312.474 10.9024C312.479 8.34238 314.659 6.17077 317.475 6.17645C320.099 6.18175 322.399 8.3624 322.394 10.9224C322.388 13.5464 320.08 15.7177 317.456 15.7124ZM376.618 54.2319L376.688 19.48L363.786 38.654C363.337 39.2291 362.569 39.2275 362.122 38.6506L349.36 19.4248L349.29 54.1768C349.288 55.2008 348.775 55.7117 347.751 55.7097L345.767 55.7057C344.743 55.7036 344.232 55.1906 344.234 54.1666L344.322 10.9026C344.324 9.87865 344.837 9.36768 345.861 9.36975L347.077 9.3722C348.101 9.37427 348.868 9.82382 349.442 10.657L362.969 31.2923L376.706 10.712C377.284 9.88116 378.053 9.43471 379.077 9.43678L380.229 9.4391C381.253 9.44117 381.764 9.9542 381.762 10.9782L381.674 54.2421C381.672 55.2661 381.159 55.7771 380.135 55.775L378.151 55.771C377.127 55.7689 376.616 55.2559 376.618 54.2319ZM395.168 11.0053L395.11 39.3572C395.094 47.6132 398.413 51.7799 405.133 51.7935C413.069 51.8095 415.838 43.623 415.975 39.2713L416.032 11.0474C416.034 10.0234 416.547 9.5124 417.571 9.51446L419.555 9.51847C420.579 9.52053 421.09 10.0336 421.087 11.0576L421 54.3215C420.998 55.3455 420.485 55.8564 419.461 55.8544L417.925 55.8513C416.901 55.8492 416.39 55.3362 416.392 54.3122L416.404 48.3602L416.148 48.3597C415.568 50.5985 412.548 56.3524 404.036 56.3352C399.108 56.3253 395.527 54.8461 393.293 51.8976C391.123 48.8852 390.043 45.043 390.053 40.243L390.112 10.9951C390.114 9.97105 390.627 9.46009 391.651 9.46215L393.635 9.46616C394.659 9.46822 395.17 9.98126 395.168 11.0053ZM442.319 51.9325C448.655 51.9453 451.86 49.2637 451.871 43.8878C451.896 31.5358 428.461 36.9925 428.493 20.8645C428.5 17.7285 429.657 14.9789 431.966 12.6155C434.339 10.2523 437.733 9.04315 442.277 9.05232C451.237 9.0704 456.092 13.4962 456.782 20.6656C456.843 21.7537 456.394 22.3288 455.37 22.4548L453.578 22.7072C452.553 22.8331 451.978 22.3839 451.916 21.4238C451.351 16.2386 448.22 13.6083 442.396 13.5966C436.444 13.5846 433.557 16.7787 433.549 20.9387C433.526 32.1387 457.024 27.3861 456.99 44.3461C456.983 47.8661 455.825 50.7437 453.452 53.043C451.08 55.3422 447.365 56.4867 442.181 56.4762C437.061 56.4659 433.096 54.9859 430.989 52.7416C428.946 50.4335 427.926 48.1914 427.611 45.6308C427.485 44.5425 427.935 43.9675 428.959 43.8415L430.687 43.589C431.776 43.3992 432.351 43.8484 432.477 44.8726C433.044 48.9698 436.239 51.9202 442.319 51.9325ZM470.989 23.8303L470.933 51.4782L473.813 51.4841C474.837 51.4861 475.348 51.9992 475.346 53.0231L475.343 54.4311C475.341 55.4551 474.828 55.9661 473.804 55.964L462.924 55.9421C461.9 55.94 461.389 55.427 461.391 54.403L461.394 52.995C461.396 51.971 461.909 51.46 462.933 51.4621L465.877 51.468L465.933 23.8201L462.989 23.8141C461.965 23.8121 461.454 23.2991 461.456 22.2751L461.459 20.8671C461.461 19.8431 461.974 19.3321 462.998 19.3342L473.878 19.3561C474.902 19.3582 475.413 19.8712 475.411 20.8952L475.408 22.3032C475.406 23.3272 474.893 23.8382 473.869 23.8361L470.989 23.8303ZM468.381 16.017C465.565 16.0113 463.393 13.8309 463.398 11.2069C463.403 8.64696 465.584 6.47535 468.4 6.48103C471.024 6.48633 473.323 8.66698 473.318 11.227C473.313 13.851 471.005 16.0223 468.381 16.017ZM496.329 51.9775C502.601 51.9902 505.936 48.6049 506.334 41.8217C506.399 40.9898 507.041 40.3511 508 40.545L509.92 40.8689C510.943 40.999 511.39 41.6399 511.324 42.7917C511.123 47.0153 509.836 50.3407 507.591 52.8322C505.346 55.3237 501.632 56.5322 496.32 56.5215C490.88 56.5105 487.043 54.9028 484.744 52.4021C483.595 51.1838 482.702 49.518 482.066 47.4687C480.795 43.3061 480.482 39.4015 480.495 33.1935C480.506 27.7535 480.769 24.042 482.058 19.6286C483.863 13.1683 488.031 9.40066 496.415 9.16158C501.663 9.17217 505.437 10.3958 507.672 12.8963C509.907 15.3328 511.18 18.5994 511.428 22.7599C511.49 23.848 511.04 24.5511 510.016 24.7411L507.967 25.1849C507.007 25.375 506.432 24.9898 506.369 24.0297C505.999 17.1809 502.678 13.7182 496.406 13.7056C491.99 13.6967 489.235 15.5471 487.82 18.5523C486.792 20.7902 486.277 22.3891 485.951 25.3965C485.625 28.4038 485.621 30.0678 485.615 33.2038C485.61 35.4438 485.607 37.1718 485.668 38.516C485.855 41.0763 486.103 44.9168 487.06 46.7748C488.589 49.9139 490.953 51.9666 496.329 51.9775Z" fill="#FFB800"/>
</svg>
