<svg width="210" height="96" viewBox="0 0 210 96" fill="none" xmlns="http://www.w3.org/2000/svg">
<path d="M9.76138 26.4831L5.86352 31.6108L5.84646 40.4908C5.84498 41.2588 5.46024 41.642 4.69224 41.6404L3.15625 41.6371C2.38825 41.6355 2.00499 41.2507 2.00646 40.4827L2.06882 8.03474C2.0703 7.26675 2.45503 6.88356 3.22303 6.88519L4.75903 6.88844C5.52703 6.89007 5.91029 7.27489 5.90881 8.04288L5.87376 26.2828L19.3492 7.83137C19.7824 7.20828 20.359 6.9215 21.175 6.92323L23.575 6.92832C24.151 6.92954 24.3419 7.50595 24.0051 7.88923L12.0711 23.512L24.23 40.7218C24.5652 41.1545 24.3242 41.682 23.7482 41.6808L21.4922 41.676C20.7722 41.6745 20.1489 41.3371 19.6701 40.7121L9.76138 26.4831ZM38.3179 38.6876C43.0698 38.6977 45.1865 36.3022 45.5763 33.279C45.6736 32.5592 46.1063 32.2241 46.874 32.3698L47.9775 32.6121C48.7453 32.7577 49.0803 33.2384 48.9349 34.0061C48.6907 36.1656 47.679 38.0835 45.9479 39.7118C44.2649 41.2922 41.6713 42.1028 38.2153 42.0954C34.1353 42.0868 31.114 40.6884 29.342 38.6206C28.48 37.5628 27.8106 36.2174 27.2857 34.5842C26.2841 31.2701 26.0022 28.1015 26.011 23.4935C26.0187 19.5095 26.264 16.726 27.2299 13.6561C28.6304 9.24304 31.7072 6.75355 37.7556 6.57437C41.4516 6.58221 44.233 7.9321 45.909 9.99966C46.7231 11.0094 47.3927 12.2588 47.8697 13.7958C48.8238 16.8699 49.1063 19.7505 49.0989 23.5905L49.0979 24.1185C49.0973 24.4064 48.953 24.5501 48.665 24.5495L29.8491 24.5097C29.8424 28.0137 30.0301 30.2221 30.649 32.8634C31.65 36.5135 33.8062 38.4861 38.3179 38.6876ZM29.9036 21.1018L45.2636 21.1343C45.1796 14.8941 43.653 9.99488 37.749 9.98237C34.677 9.97586 32.5629 11.0754 31.4546 13.329C30.4424 15.4869 30.0542 17.6941 29.9036 21.1018ZM65.2519 42.2007C58.3881 42.0902 54.7936 39.2506 54.5643 33.6341C54.5177 32.914 54.8547 32.4347 55.623 32.2443L56.8236 31.9588C57.5919 31.7685 58.0234 32.0574 58.0699 32.8255C58.211 34.3138 58.5451 35.3225 59.5026 36.6205C60.4601 37.9186 62.4266 38.6907 65.2585 38.7447C70.3943 38.8996 72.6082 35.8323 72.6174 31.0323L72.6334 22.6803L72.4894 22.68C72.1513 23.7833 71.6695 24.7423 70.3709 26.0835C69.0724 27.3768 66.7187 28.2838 63.7907 28.2776C60.0947 28.2698 57.4568 27.1602 55.781 24.9486C54.1054 22.6891 53.2949 19.8073 53.3018 16.2073L53.3173 8.14336C53.3188 7.37536 53.7035 6.99217 54.4715 6.9938L55.9595 6.99695C56.7275 6.99858 57.1108 7.3834 57.1093 8.15139L57.0951 15.5434C57.0832 21.7354 59.5733 24.8127 64.5653 24.8232C67.4453 24.8293 69.7521 23.3462 70.9081 21.2847C72.0642 19.1751 72.5959 17.2082 72.6473 15.4803L72.6613 8.18435C72.6628 7.41635 73.0475 7.03317 73.8155 7.0348L75.3515 7.03805C76.1195 7.03968 76.5028 7.42449 76.5013 8.19249L76.4573 31.0885C76.4443 37.8564 73.0756 42.3613 65.2519 42.2007ZM86.586 24.4859C86.5682 33.7499 89.0065 38.7951 95.1985 38.8082C100.046 38.8185 102.456 34.0716 102.474 24.5196C102.492 14.9676 100.39 10.1151 95.2536 10.1042C89.4937 10.092 86.6044 14.8859 86.586 24.4859ZM87.0608 2.21486L87.0422 11.8628L87.2822 11.8633C88.1039 8.93708 91.0362 6.68729 95.5002 6.69675C102.844 6.71232 106.193 12.6714 106.17 24.5274C106.147 36.3354 102.584 42.2318 95.4319 42.2167C90.9679 42.2072 87.9007 39.7527 86.9941 36.9188L86.8021 36.9184L86.7949 40.6624C86.7934 41.4304 86.4087 41.8136 85.6407 41.8119L84.3447 41.8092C83.5767 41.8076 83.1934 41.4227 83.1949 40.6548L83.2688 2.20682C83.2703 1.43882 83.655 1.05564 84.423 1.05726L85.911 1.06042C86.679 1.06204 87.0623 1.44686 87.0608 2.21486ZM135.962 24.6865C135.939 36.9745 132.04 42.2943 123.208 42.2756C114.377 42.2568 110.499 36.9206 110.522 24.6326C110.546 12.2967 114.493 6.737 123.277 6.75562C132.061 6.77423 135.986 12.3506 135.962 24.6865ZM114.362 24.6408C114.343 34.5767 117.023 38.8544 123.215 38.8676C129.407 38.8807 132.103 34.6144 132.122 24.6784C132.142 14.6464 129.462 10.1767 123.27 10.1636C117.078 10.1505 114.382 14.6088 114.362 24.6408ZM151.205 38.9269C153.749 38.9323 155.766 38.2165 157.161 36.8275C158.555 35.3905 159.279 33.712 159.282 31.744C159.286 29.776 158.569 28.0945 157.18 26.6515C155.791 25.2086 153.776 24.4843 151.232 24.4789C148.928 24.474 147.103 25.1902 145.804 26.6274C144.505 28.0647 143.83 29.7432 143.826 31.7112C143.823 33.6792 144.491 35.3606 145.785 36.8034C147.078 38.1981 148.901 38.922 151.205 38.9269ZM162.861 18.0235L162.825 36.5035C162.822 38.3755 163.349 38.9526 164.549 38.9552L165.269 38.8607C165.653 38.7655 165.845 38.9099 165.844 39.3419L165.841 40.8299C165.84 41.5499 165.455 41.9811 164.734 42.2196C164.302 42.3146 163.774 42.3615 163.102 42.3601C160.75 42.3551 159.457 40.6724 159.463 37.9364L159.463 37.7924L159.319 37.7921C159.174 38.0318 159.174 38.3678 158.26 39.3738C157.153 40.7635 154.798 42.2465 150.91 42.3343C147.694 42.3274 145.056 41.3139 142.996 39.2455C140.984 37.1772 139.981 34.6311 139.987 31.6071C139.992 28.6791 141.005 26.1852 143.025 24.1255C145.093 22.0659 147.735 21.0635 150.999 21.0704C154.455 21.0777 157.284 22.5717 158.194 23.7257L158.864 24.5911L159.056 24.5915L159.068 18.4475C159.078 12.9755 156.588 10.2342 151.596 10.2236C147.036 10.214 144.536 12.4167 144.095 16.8318C144.045 17.6477 143.613 17.9827 142.893 17.7892L141.598 17.4505C140.878 17.2569 140.591 16.7763 140.641 16.0564C141.132 9.86547 144.834 6.80131 151.698 6.81585C159.138 6.83162 162.875 10.5835 162.861 18.0235ZM182.926 10.386C179.422 10.3786 176.827 12.0531 175.622 14.6906C174.417 17.232 173.981 19.6791 173.975 22.3191L173.94 40.8471C173.938 41.6151 173.554 41.9983 172.786 41.9966L171.25 41.9934C170.482 41.9917 170.098 41.6069 170.1 40.8389L170.162 8.39099C170.164 7.62299 170.548 7.2398 171.316 7.24143L172.468 7.24387C173.236 7.2455 173.62 7.63031 173.618 8.39831L173.608 13.6303L173.8 13.6307C174.139 12.3354 174.765 11.0887 176.112 9.5556C177.507 7.97455 180.053 6.87595 183.269 6.88276C183.605 6.88347 183.893 6.93209 184.229 6.9808C184.757 7.02992 185.044 7.36652 185.043 7.94252L185.04 9.52652C185.039 10.1505 184.702 10.4378 184.03 10.4364C183.982 10.4363 183.454 10.3872 182.926 10.386ZM205.905 24.7388C205.924 15.1388 203.053 10.3327 197.293 10.3205C192.157 10.3096 190.036 15.1531 190.018 24.7051C189.999 34.2571 192.39 39.0142 197.238 39.0244C203.43 39.0376 205.888 34.0028 205.905 24.7388ZM205.258 12.1134L205.498 12.1139L205.516 2.4659C205.518 1.6979 205.902 1.31472 206.67 1.31634L208.158 1.3195C208.926 1.32113 209.31 1.70594 209.308 2.47394L209.234 40.9219C209.233 41.6899 208.848 42.0731 208.08 42.0714L206.784 42.0687C206.016 42.0671 205.633 41.6822 205.634 40.9142L205.642 37.1702L205.45 37.1698C204.532 39.9999 201.551 42.4416 196.991 42.4319C189.839 42.4168 186.299 36.5053 186.322 24.6973C186.344 12.8413 189.908 6.89683 197.06 6.91199C201.716 6.92186 204.352 9.08745 205.258 12.1134ZM12.7082 91.6335C17.4122 91.6434 19.9131 89.1047 20.2108 84.0174C20.2603 83.2495 20.693 82.9144 21.4607 83.06L22.9002 83.3031C23.6199 83.4486 24.0031 83.8814 23.9536 84.6493C23.8035 87.865 22.8386 90.4069 21.155 92.2754C19.4714 94.1438 16.6856 95.0499 12.7016 95.0415C8.62165 95.0328 5.74396 93.8267 4.01956 91.9511C3.15732 91.0372 2.48772 89.7878 2.01067 88.2508C1.05667 85.1288 0.822294 82.2003 0.831242 77.5443C0.839082 73.4643 1.03643 70.6807 2.00279 67.3707C2.96934 63.9648 4.55721 61.9521 7.48788 60.5663C8.97726 59.8495 10.7059 59.5172 12.7699 59.5215C14.8339 59.5259 16.5613 59.8176 18.0483 60.3487C22.4608 62.1821 23.5584 65.4964 24.0301 69.8174C24.0764 70.7295 23.8838 71.0171 22.9715 71.2072L21.4348 71.5399C20.7145 71.6824 20.2831 71.3935 20.2365 70.6734C19.9584 65.5368 17.4673 62.9395 12.7633 62.9295C9.45136 62.9225 7.38469 64.3101 6.32435 66.5639C5.55313 68.2423 5.16682 69.4414 4.92249 71.6969C4.67815 73.9524 4.67575 75.2004 4.67123 77.5524C4.668 79.2324 4.66551 80.5284 4.71158 81.5365C4.85189 83.4568 5.03835 86.3372 5.75568 87.7307C6.90315 90.0852 8.6762 91.6249 12.7082 91.6335ZM29.3777 90.6608L29.4461 55.0929C29.4475 54.3249 29.8323 53.9417 30.6003 53.9433L32.0883 53.9465C32.8563 53.9481 33.2395 54.3329 33.2381 55.1009L33.1716 89.7088C33.1687 91.1968 33.6958 91.678 34.8478 91.6804C35.0878 91.6809 35.3279 91.6334 35.5679 91.5859C36 91.5388 36.1918 91.6832 36.191 92.0672L36.1881 93.6032C36.1867 94.3232 35.8018 94.8024 35.0815 94.9449C34.6973 95.0401 34.1692 95.087 33.4972 95.0855C30.7612 95.0797 29.3721 93.5888 29.3777 90.6608ZM50.5092 91.7136C53.0532 91.719 55.0706 91.0033 56.4653 89.6142C57.86 88.1772 58.5833 86.4987 58.587 84.5307C58.5908 82.5627 57.8741 80.8812 56.4848 79.4382C55.0956 77.9953 53.081 77.271 50.537 77.2656C48.233 77.2607 46.4076 77.9769 45.1089 79.4141C43.8101 80.8514 43.1349 82.5299 43.1311 84.4979C43.1273 86.4659 43.7961 88.1474 45.0893 89.5901C46.3826 90.9848 48.2052 91.7087 50.5092 91.7136ZM62.1654 70.8102L62.1299 89.2902C62.1263 91.1622 62.6532 91.7393 63.8532 91.7419L64.5734 91.6474C64.9576 91.5522 65.1493 91.6966 65.1485 92.1286L65.1456 93.6166C65.1442 94.3366 64.7594 94.7678 64.0389 95.0063C63.6067 95.1014 63.0787 95.1482 62.4067 95.1468C60.0547 95.1418 58.7619 93.4591 58.7672 90.7231L58.7674 90.5791L58.6234 90.5788C58.479 90.8185 58.4783 91.1545 57.5644 92.1605C56.4577 93.5502 54.1029 95.0332 50.2147 95.121C46.9987 95.1142 44.3606 94.1006 42.3006 92.0322C40.2886 89.9639 39.2855 87.4178 39.2913 84.3938C39.2969 81.4658 40.3097 78.9719 42.3297 76.9122C44.3976 74.8526 47.0396 73.8502 50.3035 73.8571C53.7595 73.8644 56.5887 75.3584 57.4985 76.5124L58.1688 77.3778L58.3608 77.3782L58.3726 71.2342C58.3831 65.7622 55.8924 63.0209 50.9004 63.0104C46.3404 63.0007 43.8402 65.2034 43.3997 69.6185C43.3501 70.4344 42.9175 70.7695 42.1978 70.5759L40.9025 70.2372C40.1829 70.0437 39.8958 69.563 39.9452 68.8432C40.4371 62.6522 44.139 59.588 51.0029 59.6026C58.4429 59.6183 62.1797 63.3703 62.1654 70.8102ZM78.912 91.8218C83.6639 91.8319 86.0678 89.8209 86.0756 85.789C86.0934 76.525 68.5175 80.6157 68.5407 68.5198C68.5452 66.1678 69.4132 64.1056 71.1446 62.3333C72.924 60.561 75.4698 59.6544 78.8778 59.6616C85.5977 59.6759 89.2394 62.9956 89.757 68.3727C89.8035 69.1888 89.4666 69.6201 88.6985 69.7145L87.3541 69.9036C86.5859 69.998 86.1546 69.6611 86.1079 68.941C85.6834 65.0521 83.3352 63.0791 78.9672 63.0698C74.5032 63.0604 72.3386 65.4558 72.3326 68.5758C72.3165 76.9758 89.9393 73.4131 89.9149 86.1331C89.9098 88.7731 89.0417 90.9313 87.2624 92.6555C85.483 94.3797 82.6974 95.2378 78.8094 95.2296C74.9694 95.2214 71.9955 94.1111 70.4148 92.4278C68.8821 90.6965 68.1173 89.0149 67.881 87.0944C67.7866 86.2782 68.1234 85.8469 68.8916 85.7525L70.188 85.5633C71.0042 85.421 71.4356 85.7579 71.5301 86.5261C71.9562 89.599 74.352 91.8121 78.912 91.8218ZM104.74 91.8765C109.492 91.8866 111.896 89.8757 111.904 85.8437C111.921 76.5797 94.3455 80.6705 94.3688 68.5745C94.3733 66.2225 95.2413 64.1603 96.9727 62.388C98.7521 60.6158 101.298 59.7092 104.706 59.7164C111.426 59.7306 115.067 63.0503 115.585 68.4275C115.632 69.2436 115.295 69.6748 114.527 69.7692L113.182 69.9584C112.414 70.0527 111.983 69.7158 111.936 68.9957C111.511 65.1068 109.163 63.1338 104.795 63.1246C100.331 63.1151 98.1667 65.5105 98.1607 68.6305C98.1445 77.0305 115.767 73.4679 115.743 86.1878C115.738 88.8278 114.87 90.986 113.09 92.7102C111.311 94.4345 108.525 95.2926 104.637 95.2843C100.797 95.2762 97.8236 94.1659 96.2428 92.4825C94.7102 90.7513 93.9454 89.0696 93.7091 87.1491C93.6147 86.3329 93.9515 85.9016 94.7197 85.8073L96.016 85.618C96.8323 85.4758 97.2637 85.8127 97.3582 86.5809C97.7843 89.6538 100.18 91.8669 104.74 91.8765ZM132.2 91.8867C136.952 91.8968 139.069 89.5013 139.459 86.4781C139.556 85.7583 139.989 85.4232 140.756 85.5688L141.86 85.8112C142.628 85.9568 142.963 86.4375 142.817 87.2052C142.573 89.3647 141.561 91.2826 139.83 92.9109C138.147 94.4913 135.554 95.3018 132.098 95.2945C128.018 95.2859 124.996 93.8875 123.224 91.8197C122.362 90.7619 121.693 89.4164 121.168 87.7833C120.166 84.4692 119.884 81.3006 119.893 76.6926C119.901 72.7086 120.146 69.9251 121.112 66.8552C122.513 62.4421 125.59 59.9526 131.638 59.7735C135.334 59.7813 138.115 61.1312 139.791 63.1987C140.605 64.2085 141.275 65.4579 141.752 66.9949C142.706 70.0689 142.989 72.9495 142.981 76.7895L142.98 77.3175C142.98 77.6055 142.835 77.7492 142.547 77.7486L123.731 77.7087C123.725 81.2127 123.912 83.4211 124.531 86.0625C125.532 89.7126 127.689 91.6852 132.2 91.8867ZM123.786 74.3008L139.146 74.3334C139.062 68.0932 137.535 63.194 131.631 63.1815C128.559 63.1749 126.445 64.2745 125.337 66.5281C124.325 68.686 123.937 70.8932 123.786 74.3008ZM158.037 91.9895C162.789 91.9995 165.193 89.9886 165.2 85.9566C165.218 76.6927 147.642 80.7834 147.666 68.6874C147.67 66.3355 148.538 64.2733 150.269 62.5009C152.049 60.7287 154.595 59.8221 158.003 59.8293C164.723 59.8436 168.364 63.1633 168.882 68.5404C168.928 69.3565 168.591 69.7878 167.823 69.8822L166.479 70.0713C165.711 70.1657 165.279 69.8288 165.233 69.1087C164.808 65.2198 162.46 63.2468 158.092 63.2375C153.628 63.2281 151.463 65.6235 151.457 68.7435C151.441 77.1435 169.064 73.5808 169.04 86.3008C169.035 88.9408 168.167 91.0989 166.387 92.8232C164.608 94.5474 161.822 95.4055 157.934 95.3973C154.094 95.3891 151.12 94.2788 149.54 92.5955C148.007 90.8642 147.242 89.1826 147.006 87.2621C146.911 86.4459 147.248 86.0146 148.016 85.9202L149.313 85.731C150.129 85.5887 150.56 85.9256 150.655 86.6938C151.081 89.7667 153.477 91.9798 158.037 91.9895Z" fill="#FFB800"/>
</svg>
