<svg width="563" height="139" viewBox="0 0 563 139" fill="none" xmlns="http://www.w3.org/2000/svg">
<path d="M107.449 3.19141V136H77.2617V46.3398L65.2031 136H43.793L31.0781 48.3906V136H0.890625V3.19141H45.5977C46.9102 11.1758 48.3047 20.582 49.7812 31.4102L54.5391 65.207L62.4141 3.19141H107.449ZM155.848 3.19141V136H121.312V3.19141H155.848ZM169.711 3.19141H194.156C210.453 3.19141 221.473 3.82031 227.215 5.07812C233.012 6.33594 237.715 9.5625 241.324 14.7578C244.988 19.8984 246.82 28.1289 246.82 39.4492C246.82 49.7852 245.535 56.7305 242.965 60.2852C240.395 63.8398 235.336 65.9727 227.789 66.6836C234.625 68.3789 239.219 70.6484 241.57 73.4922C243.922 76.3359 245.371 78.9609 245.918 81.3672C246.52 83.7188 246.82 90.2539 246.82 100.973V136H214.746V91.8672C214.746 84.7578 214.172 80.3555 213.023 78.6602C211.93 76.9648 209.004 76.1172 204.246 76.1172V136H169.711V3.19141ZM204.246 25.9141V55.4453C208.129 55.4453 210.836 54.9258 212.367 53.8867C213.953 52.793 214.746 49.3203 214.746 43.4688V36.168C214.746 31.957 213.98 29.1953 212.449 27.8828C210.973 26.5703 208.238 25.9141 204.246 25.9141ZM319.91 3.19141L339.68 136H304.324L302.602 112.129H290.215L288.164 136H252.398L269.953 3.19141H319.91ZM301.617 88.5859C299.867 73.5469 298.117 54.9805 296.367 32.8867C292.867 58.2617 290.68 76.8281 289.805 88.5859H301.617ZM426.223 61.1055H391.688V37.9727C391.688 31.2461 391.305 27.0625 390.539 25.4219C389.828 23.7266 388.215 22.8789 385.699 22.8789C382.855 22.8789 381.051 23.8906 380.285 25.9141C379.52 27.9375 379.137 32.3125 379.137 39.0391V100.727C379.137 107.18 379.52 111.391 380.285 113.359C381.051 115.328 382.773 116.312 385.453 116.312C388.023 116.312 389.691 115.328 390.457 113.359C391.277 111.391 391.688 106.77 391.688 99.4961V82.8438H426.223V88.0117C426.223 101.738 425.238 111.473 423.27 117.215C421.355 122.957 417.062 127.988 410.391 132.309C403.773 136.629 395.598 138.789 385.863 138.789C375.746 138.789 367.406 136.957 360.844 133.293C354.281 129.629 349.934 124.57 347.801 118.117C345.668 111.609 344.602 101.848 344.602 88.832V50.0312C344.602 40.4609 344.93 33.2969 345.586 28.5391C346.242 23.7266 348.184 19.1055 351.41 14.6758C354.691 10.2461 359.203 6.77344 364.945 4.25781C370.742 1.6875 377.387 0.402344 384.879 0.402344C395.051 0.402344 403.445 2.37109 410.062 6.30859C416.68 10.2461 421.027 15.168 423.105 21.0742C425.184 26.9258 426.223 36.0586 426.223 48.4727V61.1055ZM473.145 3.19141V109.422H494.145V136H438.609V3.19141H473.145ZM502.594 3.19141H560.18V29.7695H537.129V54.9531H558.703V80.2188H537.129V109.422H562.477V136H502.594V3.19141Z" fill="#20133B"/>
</svg>
