<svg width="392" height="111" viewBox="0 0 392 111" fill="none" xmlns="http://www.w3.org/2000/svg">
<path d="M75.544 105.448V25.084L45.796 69.484C44.76 70.816 42.984 70.816 41.948 69.484L12.348 25.084V105.448C12.348 107.816 11.164 109 8.796 109H4.208C1.84 109 0.656001 107.816 0.656001 105.448V5.39999C0.656001 3.032 1.84 1.84799 4.208 1.84799H7.02C9.388 1.84799 11.164 2.884 12.496 4.80799L43.872 52.464L75.544 4.80799C76.876 2.884 78.652 1.84799 81.02 1.84799H83.684C86.052 1.84799 87.236 3.032 87.236 5.39999V105.448C87.236 107.816 86.052 109 83.684 109H79.096C76.728 109 75.544 107.816 75.544 105.448ZM168.705 71.26V5.39999C168.705 3.032 169.889 1.84799 172.257 1.84799H176.845C179.213 1.84799 180.397 3.032 180.397 5.39999V72.296C180.397 95.828 168.261 110.184 144.137 110.184C120.013 110.184 108.025 95.828 108.025 72.296V5.39999C108.025 3.032 109.209 1.84799 111.577 1.84799H116.165C118.533 1.84799 119.717 3.032 119.717 5.39999V71.26C119.717 88.428 128.745 99.676 144.137 99.676C159.529 99.676 168.705 88.428 168.705 71.26ZM229.984 99.824C244.636 99.824 252.036 93.608 252.036 81.176C252.036 52.612 197.868 65.34 197.868 28.044C197.868 20.792 200.532 14.428 205.86 8.95199C211.336 3.47599 219.18 0.663992 229.688 0.663992C250.556 0.663992 262.1 10.876 263.284 27.452C263.432 29.968 262.396 31.3 260.028 31.596L255.884 32.188C253.516 32.484 252.184 31.448 252.036 29.228C250.704 17.24 243.452 11.172 229.984 11.172C216.22 11.172 209.56 18.572 209.56 28.192C209.56 54.092 263.876 42.992 263.876 82.212C263.876 98.64 253.516 110.184 229.688 110.332C219.18 110.48 211.04 108.112 205.416 103.228C199.94 98.344 196.684 92.424 195.944 85.32C195.796 83.396 197.128 81.324 199.052 81.176L203.048 80.584C205.564 80.14 206.896 81.176 207.192 83.544C208.524 93.016 215.924 99.824 229.984 99.824ZM297.337 12.356V98.64H303.997C306.365 98.64 307.549 99.824 307.549 102.192V105.448C307.549 107.816 306.365 109 303.997 109H278.837C276.469 109 275.285 107.816 275.285 105.448V102.192C275.285 99.824 276.469 98.64 278.837 98.64H285.645V12.356H278.837C276.469 12.356 275.285 11.172 275.285 8.80399V5.39999C275.285 3.032 276.469 1.84799 278.837 1.84799H303.997C306.365 1.84799 307.549 3.032 307.549 5.39999V8.80399C307.549 11.172 306.365 12.356 303.997 12.356H297.337ZM356.261 99.676C370.765 99.676 378.461 91.832 379.349 76.144C379.497 73.776 380.829 72.74 383.197 73.184L387.637 73.924C389.857 74.368 391.041 75.7 390.893 78.068C390.449 87.984 387.489 95.828 382.309 101.6C377.129 107.372 368.545 110.184 356.261 110.184C343.681 110.184 334.801 106.484 329.473 100.712C326.809 97.9 324.737 94.052 323.257 89.316C320.297 79.696 319.557 70.668 319.557 56.312C319.557 43.732 320.149 35.148 323.109 24.936C326.069 14.428 330.953 8.21199 339.981 3.91999C344.569 1.7 349.897 0.663992 356.261 0.663992C362.625 0.663992 367.953 1.552 372.541 3.18C386.157 8.80399 389.561 19.016 391.041 32.336C391.189 35.148 390.597 36.036 387.785 36.628L383.049 37.664C380.829 38.108 379.497 37.22 379.349 35C378.461 19.164 370.765 11.172 356.261 11.172C346.049 11.172 339.685 15.464 336.429 22.42C334.061 27.6 332.877 31.3 332.137 38.256C331.397 45.212 331.397 49.06 331.397 56.312C331.397 61.492 331.397 65.488 331.545 68.596C331.989 74.516 332.581 83.396 334.801 87.688C338.353 94.94 343.829 99.676 356.261 99.676Z" fill="#20133B"/>
</svg>
