<svg width="485" height="118" viewBox="0 0 485 118" fill="none" xmlns="http://www.w3.org/2000/svg">
<rect width="485" height="118" rx="11" fill="#20133B"/>
<g filter="url(#filter0_d_2482_216)">
<path d="M442.177 11.4213L451.359 19.8822L462.243 13.764L457.034 25.1114L466.216 33.5723L453.814 32.1244L448.605 43.4718L446.15 31.2296L433.748 29.7817L444.632 23.6635L442.177 11.4213Z" fill="#D9D9D9"/>
</g>
<g filter="url(#filter1_d_2482_216)">
<path d="M399.333 36.1353H439.998V90.3558H412.888V63.2455H433.221V49.6904H406.11V90.3558H379V63.2455H399.333V36.1353ZM399.333 70.0231H385.778V83.5782H399.333V70.0231ZM433.221 70.0231H419.665V83.5782H433.221V70.0231Z" fill="white"/>
</g>
<path d="M25.84 83V35.64H46.704C50.2453 35.64 53.36 36.216 56.048 37.368C58.736 38.52 60.8267 40.2267 62.32 42.488C63.8133 44.7067 64.56 47.4587 64.56 50.744C64.56 53.944 63.8133 56.6747 62.32 58.936C60.8693 61.1547 58.864 62.84 56.304 63.992L65.52 83H52.016L44.016 65.848H38.128V83H25.84ZM46.512 46.2H38.128V56.056H46.512C48.2187 56.056 49.6053 55.6293 50.672 54.776C51.7387 53.9227 52.272 52.7067 52.272 51.128C52.272 49.5067 51.7387 48.2907 50.672 47.48C49.6053 46.6267 48.2187 46.2 46.512 46.2ZM91.146 83.64C88.0313 83.64 85.322 83.1493 83.018 82.168C80.7567 81.1867 78.8793 79.864 77.386 78.2C75.8927 76.4933 74.7833 74.5947 74.058 72.504C73.3327 70.3707 72.97 68.1947 72.97 65.976C72.97 63.8427 73.3113 61.7307 73.994 59.64C74.7193 57.5493 75.8073 55.672 77.258 54.008C78.7087 52.3013 80.5433 50.9573 82.762 49.976C85.0233 48.952 87.69 48.44 90.762 48.44C94.09 48.44 97.0127 49.144 99.53 50.552C102.047 51.96 104.01 54.008 105.418 56.696C106.826 59.3413 107.53 62.5627 107.53 66.36V69.112H85.194C85.322 70.5627 85.8767 71.8427 86.858 72.952C87.882 74.0613 89.3113 74.616 91.146 74.616C92.554 74.616 93.6207 74.3813 94.346 73.912C95.0713 73.4 95.562 72.9093 95.818 72.44C96.074 71.928 96.202 71.672 96.202 71.672H107.338C107.338 71.672 107.231 72.0773 107.018 72.888C106.805 73.6987 106.399 74.7013 105.802 75.896C105.205 77.048 104.309 78.2213 103.114 79.416C101.919 80.6107 100.341 81.6133 98.378 82.424C96.458 83.2347 94.0473 83.64 91.146 83.64ZM85.13 62.392H95.946C95.9033 60.6427 95.3913 59.3413 94.41 58.488C93.4287 57.592 92.1273 57.144 90.506 57.144C89.1407 57.144 87.9247 57.5707 86.858 58.424C85.834 59.2773 85.258 60.6 85.13 62.392ZM135.242 96.696C131.914 96.696 129.162 96.2907 126.986 95.48C124.853 94.6693 123.167 93.6667 121.93 92.472C120.735 91.32 119.861 90.1467 119.306 88.952C118.751 87.7573 118.389 86.7547 118.218 85.944C118.09 85.1333 118.026 84.728 118.026 84.728H129.738C129.738 84.728 129.866 84.9627 130.122 85.432C130.378 85.9013 130.869 86.3707 131.594 86.84C132.362 87.3093 133.514 87.544 135.05 87.544C137.013 87.544 138.57 86.968 139.722 85.816C140.874 84.664 141.45 82.9573 141.45 80.696V77.24H140.938C140.298 78.3067 139.21 79.3733 137.674 80.44C136.181 81.464 134.175 81.976 131.658 81.976C129.183 81.976 127.007 81.5067 125.13 80.568C123.295 79.6293 121.759 78.3707 120.522 76.792C119.285 75.1707 118.346 73.3573 117.706 71.352C117.109 69.3467 116.81 67.2987 116.81 65.208C116.81 63.1173 117.109 61.0693 117.706 59.064C118.346 57.0587 119.285 55.2667 120.522 53.688C121.759 52.0667 123.295 50.7867 125.13 49.848C127.007 48.9093 129.183 48.44 131.658 48.44C134.175 48.44 136.202 48.9733 137.738 50.04C139.274 51.1067 140.341 52.152 140.938 53.176H141.45V49.08H153.61V80.696C153.61 82.6587 153.247 84.5787 152.522 86.456C151.839 88.376 150.751 90.104 149.258 91.64C147.807 93.176 145.909 94.392 143.562 95.288C141.258 96.2267 138.485 96.696 135.242 96.696ZM135.434 72.632C136.885 72.632 138.079 72.2693 139.018 71.544C139.999 70.8187 140.725 69.88 141.194 68.728C141.663 67.576 141.898 66.4027 141.898 65.208C141.898 63.928 141.663 62.7333 141.194 61.624C140.725 60.472 139.999 59.5547 139.018 58.872C138.079 58.1467 136.885 57.784 135.434 57.784C134.026 57.784 132.831 58.1467 131.85 58.872C130.911 59.5547 130.186 60.472 129.674 61.624C129.205 62.7333 128.97 63.928 128.97 65.208C128.97 66.4027 129.205 67.576 129.674 68.728C130.186 69.88 130.911 70.8187 131.85 71.544C132.831 72.2693 134.026 72.632 135.434 72.632ZM170.757 45.688C168.752 45.688 167.088 45.048 165.765 43.768C164.485 42.4453 163.845 40.888 163.845 39.096C163.845 37.2187 164.485 35.64 165.765 34.36C167.088 33.08 168.752 32.44 170.757 32.44C172.762 32.44 174.426 33.08 175.749 34.36C177.072 35.64 177.733 37.2187 177.733 39.096C177.733 40.888 177.072 42.4453 175.749 43.768C174.426 45.048 172.762 45.688 170.757 45.688ZM164.677 83V49.08H176.837V83H164.677ZM203.55 83.64C200.563 83.64 198.088 83.256 196.126 82.488C194.206 81.6773 192.67 80.696 191.518 79.544C190.366 78.3493 189.491 77.176 188.894 76.024C188.339 74.872 187.976 73.912 187.806 73.144C187.635 72.3333 187.55 71.928 187.55 71.928H198.494C198.494 71.928 198.622 72.2053 198.878 72.76C199.134 73.272 199.667 73.8053 200.478 74.36C201.331 74.872 202.568 75.128 204.19 75.128C205.256 75.128 206.024 75 206.494 74.744C207.006 74.4453 207.326 74.1253 207.454 73.784C207.624 73.4427 207.71 73.1867 207.71 73.016C207.71 71.9493 206.75 71.2667 204.83 70.968L200.158 70.2C198.067 69.8587 196.083 69.304 194.206 68.536C192.328 67.768 190.814 66.68 189.662 65.272C188.51 63.864 187.934 62.0293 187.934 59.768C187.934 57.6347 188.488 55.7147 189.598 54.008C190.707 52.3013 192.328 50.9573 194.462 49.976C196.638 48.952 199.262 48.44 202.334 48.44C205.107 48.44 207.411 48.824 209.246 49.592C211.08 50.3173 212.552 51.2133 213.662 52.28C214.771 53.3467 215.603 54.4347 216.158 55.544C216.712 56.6107 217.075 57.528 217.246 58.296C217.416 59.0213 217.502 59.384 217.502 59.384H206.878C206.878 59.384 206.75 59.1707 206.494 58.744C206.28 58.2747 205.811 57.8267 205.086 57.4C204.403 56.9733 203.379 56.76 202.014 56.76C200.648 56.76 199.731 57.016 199.262 57.528C198.792 57.9973 198.558 58.4667 198.558 58.936C198.558 59.6187 198.899 60.1093 199.582 60.408C200.264 60.664 201.139 60.8987 202.206 61.112L206.366 61.88C209.864 62.52 212.723 63.6507 214.942 65.272C217.16 66.8507 218.27 69.1973 218.27 72.312C218.27 75.5547 217.011 78.264 214.494 80.44C211.976 82.5733 208.328 83.64 203.55 83.64ZM243.479 83.64C240.919 83.64 238.828 83.32 237.207 82.68C235.586 81.9973 234.327 81.144 233.431 80.12C232.535 79.0533 231.895 77.9227 231.511 76.728C231.127 75.5333 230.892 74.424 230.807 73.4C230.722 72.3333 230.679 71.4587 230.679 70.776V58.68H225.175V49.08H230.679V40.76H242.839V49.08H249.431V58.68H242.839V70.328C242.839 71.5227 243.159 72.504 243.799 73.272C244.439 73.9973 245.612 74.36 247.319 74.36C248.002 74.36 248.578 74.3173 249.047 74.232C249.516 74.104 249.751 74.04 249.751 74.04V83C249.751 83 249.111 83.1067 247.831 83.32C246.594 83.5333 245.143 83.64 243.479 83.64ZM276.908 83.64C273.794 83.64 271.084 83.1493 268.78 82.168C266.519 81.1867 264.642 79.864 263.148 78.2C261.655 76.4933 260.546 74.5947 259.82 72.504C259.095 70.3707 258.732 68.1947 258.732 65.976C258.732 63.8427 259.074 61.7307 259.756 59.64C260.482 57.5493 261.57 55.672 263.02 54.008C264.471 52.3013 266.306 50.9573 268.524 49.976C270.786 48.952 273.452 48.44 276.524 48.44C279.852 48.44 282.775 49.144 285.292 50.552C287.81 51.96 289.772 54.008 291.18 56.696C292.588 59.3413 293.292 62.5627 293.292 66.36V69.112H270.956C271.084 70.5627 271.639 71.8427 272.62 72.952C273.644 74.0613 275.074 74.616 276.908 74.616C278.316 74.616 279.383 74.3813 280.108 73.912C280.834 73.4 281.324 72.9093 281.58 72.44C281.836 71.928 281.964 71.672 281.964 71.672H293.1C293.1 71.672 292.994 72.0773 292.78 72.888C292.567 73.6987 292.162 74.7013 291.564 75.896C290.967 77.048 290.071 78.2213 288.876 79.416C287.682 80.6107 286.103 81.6133 284.14 82.424C282.22 83.2347 279.81 83.64 276.908 83.64ZM270.892 62.392H281.708C281.666 60.6427 281.154 59.3413 280.172 58.488C279.191 57.592 277.89 57.144 276.268 57.144C274.903 57.144 273.687 57.5707 272.62 58.424C271.596 59.2773 271.02 60.6 270.892 62.392ZM303.205 83V49.08H315.237V54.456H315.621C315.962 53.5173 316.453 52.6 317.093 51.704C317.733 50.7653 318.65 49.9973 319.845 49.4C321.04 48.76 322.618 48.44 324.581 48.44C325.605 48.44 326.373 48.5253 326.885 48.696C327.44 48.824 327.717 48.888 327.717 48.888V60.92C327.717 60.92 327.418 60.856 326.821 60.728C326.266 60.5573 325.413 60.472 324.261 60.472C321.189 60.472 318.928 61.2827 317.477 62.904C316.069 64.5253 315.365 67.1493 315.365 70.776V83H303.205Z" fill="white"/>
<defs>
<filter id="filter0_d_2482_216" x="433.748" y="11.4214" width="34.4683" height="32.0503" filterUnits="userSpaceOnUse" color-interpolation-filters="sRGB">
<feFlood flood-opacity="0" result="BackgroundImageFix"/>
<feColorMatrix in="SourceAlpha" type="matrix" values="0 0 0 0 0 0 0 0 0 0 0 0 0 0 0 0 0 0 127 0" result="hardAlpha"/>
<feOffset dx="2"/>
<feComposite in2="hardAlpha" operator="out"/>
<feColorMatrix type="matrix" values="0 0 0 0 0 0 0 0 0 0 0 0 0 0 0 0 0 0 1 0"/>
<feBlend mode="normal" in2="BackgroundImageFix" result="effect1_dropShadow_2482_216"/>
<feBlend mode="normal" in="SourceGraphic" in2="effect1_dropShadow_2482_216" result="shape"/>
</filter>
<filter id="filter1_d_2482_216" x="379" y="36.1353" width="62.9981" height="56.2207" filterUnits="userSpaceOnUse" color-interpolation-filters="sRGB">
<feFlood flood-opacity="0" result="BackgroundImageFix"/>
<feColorMatrix in="SourceAlpha" type="matrix" values="0 0 0 0 0 0 0 0 0 0 0 0 0 0 0 0 0 0 127 0" result="hardAlpha"/>
<feOffset dx="2" dy="2"/>
<feComposite in2="hardAlpha" operator="out"/>
<feColorMatrix type="matrix" values="0 0 0 0 0 0 0 0 0 0 0 0 0 0 0 0 0 0 1 0"/>
<feBlend mode="normal" in2="BackgroundImageFix" result="effect1_dropShadow_2482_216"/>
<feBlend mode="normal" in="SourceGraphic" in2="effect1_dropShadow_2482_216" result="shape"/>
</filter>
</defs>
</svg>
