<svg width="41" height="41" viewBox="0 0 41 41" fill="none" xmlns="http://www.w3.org/2000/svg">
<path d="M13.3263 3.41675H27.6763C33.143 3.41675 37.5846 7.85842 37.5846 13.3251V27.6751C37.5846 30.3029 36.5407 32.8232 34.6826 34.6813C32.8244 36.5395 30.3042 37.5834 27.6763 37.5834H13.3263C7.85964 37.5834 3.41797 33.1418 3.41797 27.6751V13.3251C3.41797 10.6972 4.46188 8.177 6.32005 6.31883C8.17823 4.46066 10.6984 3.41675 13.3263 3.41675ZM12.9846 6.83341C11.3536 6.83341 9.78928 7.48136 8.63593 8.63471C7.48258 9.78806 6.83464 11.3523 6.83464 12.9834V28.0167C6.83464 31.4163 9.58505 34.1667 12.9846 34.1667H28.018C29.649 34.1667 31.2133 33.5188 32.3667 32.3655C33.52 31.2121 34.168 29.6478 34.168 28.0167V12.9834C34.168 9.58383 31.4176 6.83341 28.018 6.83341H12.9846ZM29.4701 9.39592C30.0364 9.39592 30.5796 9.6209 30.98 10.0214C31.3805 10.4218 31.6055 10.965 31.6055 11.5313C31.6055 12.0977 31.3805 12.6408 30.98 13.0413C30.5796 13.4418 30.0364 13.6667 29.4701 13.6667C28.9037 13.6667 28.3606 13.4418 27.9601 13.0413C27.5596 12.6408 27.3346 12.0977 27.3346 11.5313C27.3346 10.965 27.5596 10.4218 27.9601 10.0214C28.3606 9.6209 28.9037 9.39592 29.4701 9.39592ZM20.5013 11.9584C22.7667 11.9584 24.9393 12.8583 26.5412 14.4602C28.143 16.0621 29.043 18.2347 29.043 20.5001C29.043 22.7655 28.143 24.9381 26.5412 26.54C24.9393 28.1418 22.7667 29.0417 20.5013 29.0417C18.2359 29.0417 16.0633 28.1418 14.4614 26.54C12.8596 24.9381 11.9596 22.7655 11.9596 20.5001C11.9596 18.2347 12.8596 16.0621 14.4614 14.4602C16.0633 12.8583 18.2359 11.9584 20.5013 11.9584ZM20.5013 15.3751C19.1421 15.3751 17.8385 15.915 16.8774 16.8762C15.9163 17.8373 15.3763 19.1408 15.3763 20.5001C15.3763 21.8593 15.9163 23.1629 16.8774 24.124C17.8385 25.0851 19.1421 25.6251 20.5013 25.6251C21.8605 25.6251 23.1641 25.0851 24.1252 24.124C25.0863 23.1629 25.6263 21.8593 25.6263 20.5001C25.6263 19.1408 25.0863 17.8373 24.1252 16.8762C23.1641 15.915 21.8605 15.3751 20.5013 15.3751Z" fill="white"/>
</svg>
