<svg width="42" height="41" viewBox="0 0 42 41" fill="none" xmlns="http://www.w3.org/2000/svg">
<path d="M21.2513 3.41675C30.6865 3.41675 38.3347 11.065 38.3347 20.5001C38.3347 29.9352 30.6865 37.5834 21.2513 37.5834C18.2323 37.5883 15.2664 36.7893 12.6584 35.2686L4.17483 37.5834L6.48449 29.0964C4.96253 26.4876 4.16295 23.5204 4.16799 20.5001C4.16799 11.065 11.8162 3.41675 21.2513 3.41675ZM15.4293 12.4709L15.0877 12.4846C14.8665 12.4981 14.6503 12.5562 14.4522 12.6554C14.2668 12.7604 14.0977 12.8915 13.9499 13.0449C13.7449 13.238 13.6287 13.4054 13.504 13.5677C12.8722 14.3892 12.5319 15.3978 12.5371 16.4342C12.5405 17.2713 12.7592 18.0862 13.1009 18.8481C13.7996 20.389 14.9493 22.0205 16.4663 23.5324C16.8319 23.8962 17.1906 24.2618 17.5767 24.6018C19.4617 26.2614 21.7079 27.4582 24.1367 28.097L25.107 28.2457C25.4231 28.2627 25.7391 28.2388 26.0569 28.2235C26.5544 28.1978 27.0402 28.0631 27.4799 27.8288C27.7036 27.7136 27.922 27.5882 28.1342 27.453C28.1342 27.453 28.2077 27.4052 28.3477 27.2992C28.5784 27.1284 28.7202 27.0071 28.9115 26.8072C29.0533 26.6603 29.1763 26.4878 29.2702 26.2913C29.4035 26.0129 29.5367 25.4816 29.5914 25.0391C29.6324 24.7009 29.6205 24.5164 29.6153 24.4019C29.6085 24.2191 29.4565 24.0295 29.2907 23.9492L28.2965 23.5033C28.2965 23.5033 26.8102 22.8559 25.9014 22.4425C25.8063 22.4009 25.7044 22.3772 25.6007 22.3724C25.4839 22.3604 25.3658 22.3736 25.2544 22.411C25.143 22.4484 25.0409 22.5092 24.955 22.5894C24.9465 22.586 24.832 22.6833 23.5969 24.1798C23.526 24.2751 23.4283 24.3471 23.3164 24.3866C23.2044 24.4262 23.0832 24.4315 22.9682 24.4019C22.8569 24.3721 22.7479 24.3344 22.6419 24.2892C22.4301 24.2003 22.3566 24.1662 22.2114 24.1047C21.2309 23.6768 20.3232 23.0987 19.5208 22.3912C19.3055 22.2033 19.1057 21.9983 18.9007 21.8001C18.2286 21.1565 17.6429 20.4283 17.1582 19.634L17.0574 19.4717C16.985 19.3626 16.9264 19.245 16.8831 19.1215C16.8182 18.8703 16.9873 18.6687 16.9873 18.6687C16.9873 18.6687 17.4025 18.2143 17.5955 17.9683C17.7834 17.7292 17.9423 17.4968 18.0448 17.3311C18.2464 17.0065 18.3096 16.6734 18.2037 16.4155C17.7253 15.247 17.2299 14.0836 16.7208 12.9287C16.62 12.6998 16.3211 12.5358 16.0495 12.5034C15.9572 12.4931 15.865 12.4829 15.7727 12.476C15.5433 12.4646 15.3134 12.4669 15.0842 12.4829L15.4293 12.4709Z" fill="white"/>
</svg>
