<svg width="30" height="31" viewBox="0 0 30 31" fill="none" xmlns="http://www.w3.org/2000/svg">
<path d="M1.1207 14.7795C1.12 17.3842 1.78375 19.9274 3.04586 22.169L1 29.8279L8.64438 27.7728C10.7587 28.9529 13.1277 29.5713 15.535 29.5715H15.5413C23.4884 29.5715 29.9575 22.941 29.9609 14.7912C29.9624 10.8421 28.4638 7.12856 25.7411 4.33471C23.0188 1.54111 19.3983 0.00180233 15.5407 0C7.59274 0 1.1241 6.63016 1.12082 14.7795" fill="url(#paint0_linear_2626_3)"/>
<path d="M0.125391 15.3097C0.12457 18.008 0.812109 20.6422 2.11922 22.964L0 30.8975L7.91848 28.7687C10.1003 29.9884 12.5568 30.6315 15.0564 30.6324H15.0628C23.295 30.6324 29.9965 23.7634 30 15.3219C30.0014 11.2309 28.4489 7.38389 25.6289 4.48995C22.8086 1.59638 19.0586 0.00168217 15.0628 0C6.82922 0 0.128672 6.86806 0.125391 15.3097ZM4.84113 22.5642L4.54547 22.0829C3.30258 20.0566 2.64656 17.7151 2.6475 15.3106C2.65008 8.29418 8.2193 2.58574 15.0675 2.58574C18.3839 2.58718 21.5006 3.91273 23.8448 6.31775C26.1889 8.72302 27.4788 11.9203 27.478 15.321C27.475 22.3374 21.9056 28.0466 15.0628 28.0466H15.0579C12.8298 28.0454 10.6446 27.4319 8.73891 26.2725L8.28539 25.9967L3.58641 27.2599L4.84113 22.5642Z" fill="url(#paint1_linear_2626_3)"/>
<path d="M11.8566 8.67012C11.577 8.03294 11.2828 8.02008 11.0169 8.0089C10.7991 7.99929 10.5502 8.00001 10.3016 8.00001C10.0527 8.00001 9.64824 8.09602 9.30641 8.47871C8.96422 8.86176 8 9.78744 8 11.6701C8 13.553 9.33746 15.3725 9.52391 15.6281C9.71059 15.8831 12.1059 19.8704 15.8995 21.4043C19.0523 22.679 19.6939 22.4255 20.3782 22.3615C21.0625 22.2979 22.5864 21.4361 22.8973 20.5425C23.2085 19.649 23.2085 18.8832 23.1152 18.7231C23.0219 18.5637 22.773 18.4679 22.3998 18.2766C22.0264 18.0852 20.1915 17.1594 19.8494 17.0317C19.5072 16.9041 19.2584 16.8404 19.0095 17.2236C18.7606 17.6062 18.0459 18.4679 17.828 18.7231C17.6104 18.9789 17.3926 19.0108 17.0195 18.8194C16.646 18.6274 15.444 18.2238 14.0179 16.9202C12.9084 15.9059 12.1593 14.6532 11.9416 14.2701C11.7239 13.8875 11.9183 13.6801 12.1054 13.4894C12.2731 13.318 12.4788 13.0426 12.6656 12.8192C12.8517 12.5957 12.9138 12.4363 13.0382 12.181C13.1628 11.9256 13.1005 11.7021 13.0073 11.5107C12.9138 11.3193 12.1885 9.42673 11.8566 8.67012Z" fill="white"/>
<defs>
<linearGradient id="paint0_linear_2626_3" x1="1449.05" y1="2982.79" x2="1449.05" y2="0" gradientUnits="userSpaceOnUse">
<stop stop-color="#ED0000"/>
<stop offset="1" stop-color="#60D669"/>
</linearGradient>
<linearGradient id="paint1_linear_2626_3" x1="1500" y1="3089.75" x2="1500" y2="0" gradientUnits="userSpaceOnUse">
<stop stop-color="#F9F9F9"/>
<stop offset="1" stop-color="white"/>
</linearGradient>
</defs>
</svg>
