<svg width="244" height="136" viewBox="0 0 244 136" fill="none" xmlns="http://www.w3.org/2000/svg">
<g filter="url(#filter0_d_2484_225)">
<rect x="8" y="7" width="226" height="118" rx="11" fill="#30025A"/>
</g>
<path d="M86.9052 64.2649C86.9035 70.5372 88.534 76.6617 91.6344 82.0598L86.6087 100.504L105.387 95.5547C110.581 98.3967 116.401 99.8859 122.314 99.8863H122.33C141.852 99.8863 157.743 83.9189 157.752 64.293C157.756 54.7828 154.074 45.8401 147.386 39.112C140.698 32.3846 131.805 28.6777 122.328 28.6733C102.804 28.6733 86.9136 44.6398 86.9055 64.2649" fill="url(#paint0_linear_2484_225)"/>
<path d="M84.4602 65.5415C84.4582 72.0395 86.1471 78.383 89.3581 83.9745L84.1522 103.08L103.604 97.9531C108.964 100.89 114.998 102.439 121.138 102.441H121.154C141.377 102.441 157.839 85.8995 157.848 65.571C157.851 55.7192 154.038 46.4549 147.11 39.4859C140.182 32.5177 130.97 28.6774 121.154 28.6733C100.928 28.6733 84.4682 45.2128 84.4602 65.5415ZM96.0445 83.0115L95.3182 81.8527C92.265 76.973 90.6535 71.3341 90.6558 65.5439C90.6621 48.6471 104.343 34.9002 121.166 34.9002C129.313 34.9037 136.969 38.0958 142.728 43.8875C148.486 49.6798 151.655 57.3795 151.652 65.5687C151.645 82.4655 137.964 96.2141 121.154 96.2141H121.142C115.669 96.2112 110.301 94.7338 105.619 91.9418L104.505 91.2777L92.9622 94.3197L96.0445 83.0115Z" fill="url(#paint1_linear_2484_225)"/>
<path d="M113.278 49.5522C112.591 48.0178 111.869 47.9868 111.215 47.9599C110.68 47.9368 110.069 47.9385 109.458 47.9385C108.847 47.9385 107.853 48.1697 107.014 49.0913C106.173 50.0137 103.804 52.2429 103.804 56.7768C103.804 61.311 107.09 65.6926 107.548 66.3081C108.006 66.9224 113.891 76.5243 123.21 80.2181C130.955 83.2879 132.531 82.6773 134.212 82.5234C135.893 82.3701 139.636 80.2948 140.4 78.1429C141.164 75.9913 141.164 74.1469 140.935 73.7615C140.706 73.3775 140.095 73.1469 139.178 72.6863C138.26 72.2253 133.753 69.9959 132.913 69.6883C132.072 69.381 131.461 69.2277 130.849 70.1504C130.238 71.0717 128.482 73.1469 127.947 73.7615C127.413 74.3776 126.877 74.4542 125.961 73.9933C125.043 73.5309 122.091 72.559 118.587 69.4198C115.862 66.9771 114.022 63.9606 113.487 63.0378C112.952 62.1165 113.43 61.6171 113.889 61.1579C114.301 60.745 114.807 60.0818 115.265 59.5439C115.723 59.0057 115.875 58.6217 116.181 58.0071C116.487 57.392 116.334 56.8538 116.105 56.3928C115.875 55.9319 114.094 51.3743 113.278 49.5522Z" fill="white"/>
<defs>
<filter id="filter0_d_2484_225" x="0.9" y="0.9" width="242.2" height="134.2" filterUnits="userSpaceOnUse" color-interpolation-filters="sRGB">
<feFlood flood-opacity="0" result="BackgroundImageFix"/>
<feColorMatrix in="SourceAlpha" type="matrix" values="0 0 0 0 0 0 0 0 0 0 0 0 0 0 0 0 0 0 127 0" result="hardAlpha"/>
<feOffset dx="1" dy="2"/>
<feGaussianBlur stdDeviation="4.05"/>
<feComposite in2="hardAlpha" operator="out"/>
<feColorMatrix type="matrix" values="0 0 0 0 0 0 0 0 0 0 0 0 0 0 0 0 0 0 1 0"/>
<feBlend mode="normal" in2="BackgroundImageFix" result="effect1_dropShadow_2484_225"/>
<feBlend mode="normal" in="SourceGraphic" in2="effect1_dropShadow_2484_225" result="shape"/>
</filter>
<linearGradient id="paint0_linear_2484_225" x1="3643.76" y1="7211.72" x2="3643.76" y2="28.6733" gradientUnits="userSpaceOnUse">
<stop stop-color="#ED0000"/>
<stop offset="1" stop-color="#60D669"/>
</linearGradient>
<linearGradient id="paint1_linear_2484_225" x1="3768.94" y1="7469.3" x2="3768.94" y2="28.6733" gradientUnits="userSpaceOnUse">
<stop stop-color="#F9F9F9"/>
<stop offset="1" stop-color="white"/>
</linearGradient>
</defs>
</svg>
