<svg width="509" height="101" viewBox="0 0 509 101" fill="none" xmlns="http://www.w3.org/2000/svg">
<path d="M34.12 17.8L56.624 96.216C57.088 97.608 56.392 99 54.652 99H50.592C48.62 99 47.46 98.072 47.112 96.332L43.052 81.368H14.4L10.224 96.448C9.644 98.188 8.484 99 6.744 99H2.8C1.06 99 0.364 97.608 0.828 96.216L23.332 17.8C23.912 15.944 25.072 15.016 26.928 15.016H30.524C32.38 15.016 33.54 15.944 34.12 17.8ZM28.784 28.936L16.604 73.248H40.848L28.784 28.936ZM92.3973 91.692C103.765 91.692 109.797 85.544 110.493 73.248C110.609 71.74 111.769 70.58 113.509 70.928L116.989 71.508C118.845 71.74 119.657 72.9 119.541 74.988C119.193 82.644 116.873 88.676 112.813 93.2C108.753 97.724 102.025 99.928 92.3973 99.928C82.5373 99.928 75.5773 97.028 71.4013 92.504C69.3133 90.3 67.6893 87.284 66.5293 83.572C64.2093 76.032 63.6293 68.956 63.6293 57.704C63.6293 47.844 64.0933 41.116 66.4133 33.112C69.6613 21.396 77.2013 14.552 92.3973 14.088C101.909 14.088 108.753 16.292 112.813 20.816C116.873 25.224 119.193 31.14 119.657 38.68C119.773 40.652 118.961 41.928 117.105 42.276L113.393 43.088C111.653 43.436 110.609 42.74 110.493 41C109.797 28.588 103.765 22.324 92.3973 22.324C84.3933 22.324 79.4053 25.688 76.8533 31.14C74.9973 35.2 74.0693 38.1 73.4893 43.552C72.9093 49.004 72.9093 52.02 72.9093 57.704C72.9093 61.764 72.9093 64.896 73.0253 67.332C73.3733 71.972 73.8373 78.932 75.5773 82.296C78.3613 87.98 82.6533 91.692 92.3973 91.692ZM156.109 91.692C162.257 91.692 167.129 89.952 170.493 86.588C173.857 83.108 175.597 79.048 175.597 74.292C175.597 69.536 173.857 65.476 170.493 61.996C167.129 58.516 162.257 56.776 156.109 56.776C150.541 56.776 146.133 58.516 143.001 61.996C139.869 65.476 138.245 69.536 138.245 74.292C138.245 79.048 139.869 83.108 143.001 86.588C146.133 89.952 150.541 91.692 156.109 91.692ZM184.181 41.116V85.776C184.181 90.3 185.457 91.692 188.357 91.692L190.097 91.46C191.025 91.228 191.489 91.576 191.489 92.62V96.216C191.489 97.956 190.561 99 188.821 99.58C187.777 99.812 186.501 99.928 184.877 99.928C179.193 99.928 176.061 95.868 176.061 89.256V88.908H175.713C175.365 89.488 175.365 90.3 173.161 92.736C170.493 96.1 164.809 99.696 155.413 99.928C147.641 99.928 141.261 97.492 136.273 92.504C131.401 87.516 128.965 81.368 128.965 74.06C128.965 66.984 131.401 60.952 136.273 55.964C141.261 50.976 147.641 48.54 155.529 48.54C163.881 48.54 170.725 52.136 172.929 54.92L174.553 57.008H175.017V42.16C175.017 28.936 168.985 22.324 156.921 22.324C145.901 22.324 139.869 27.66 138.825 38.332C138.709 40.304 137.665 41.116 135.925 40.652L132.793 39.84C131.053 39.376 130.357 38.216 130.473 36.476C131.633 21.512 140.565 14.088 157.153 14.088C175.133 14.088 184.181 23.136 184.181 41.116ZM246.21 57.124C246.21 33.924 239.25 22.324 225.33 22.324C212.918 22.324 207.814 34.04 207.814 57.124C207.814 80.208 213.614 91.692 225.33 91.692C240.294 91.692 246.21 79.512 246.21 57.124ZM244.586 26.616H245.166V3.29999C245.166 1.444 246.094 0.515996 247.95 0.515996H251.546C253.402 0.515996 254.33 1.444 254.33 3.29999V96.216C254.33 98.072 253.402 99 251.546 99H248.414C246.558 99 245.63 98.072 245.63 96.216V87.168H245.166C242.962 94.012 235.77 99.928 224.75 99.928C207.466 99.928 198.882 85.66 198.882 57.124C198.882 28.472 207.466 14.088 224.75 14.088C236.002 14.088 242.382 19.308 244.586 26.616ZM297.909 91.692C309.393 91.692 314.497 85.892 315.425 78.584C315.657 76.844 316.701 76.032 318.557 76.38L321.225 76.96C323.081 77.308 323.893 78.468 323.545 80.324C322.965 85.544 320.529 90.184 316.353 94.128C312.293 97.956 306.029 99.928 297.677 99.928C287.817 99.928 280.509 96.564 276.217 91.576C274.129 89.024 272.505 85.776 271.229 81.832C268.793 73.828 268.097 66.172 268.097 55.036C268.097 45.408 268.677 38.68 270.997 31.256C274.361 20.584 281.785 14.552 296.401 14.088C305.333 14.088 312.061 17.336 316.121 22.324C318.093 24.76 319.717 27.776 320.877 31.488C323.197 38.912 323.893 45.872 323.893 55.152V56.428C323.893 57.124 323.545 57.472 322.849 57.472H277.377C277.377 65.94 277.841 71.276 279.349 77.656C281.785 86.472 287.005 91.228 297.909 91.692ZM277.493 49.236H314.613C314.381 34.156 310.669 22.324 296.401 22.324C288.977 22.324 283.873 24.992 281.205 30.444C278.769 35.664 277.841 41 277.493 49.236ZM384.475 96.216V44.828C384.475 29.864 378.327 22.324 366.147 22.324C351.763 22.324 346.543 37.288 346.543 45.06V96.216C346.543 98.072 345.615 99 343.759 99H340.163C338.307 99 337.379 98.072 337.379 96.216V17.8C337.379 15.944 338.307 15.016 340.163 15.016H342.947C344.803 15.016 345.731 15.944 345.731 17.8V28.588H346.195C347.239 24.528 352.691 14.088 368.119 14.088C379.603 14.088 387.259 18.844 391.087 28.356C395.263 18.844 402.803 14.088 413.823 14.088C422.755 14.088 429.251 16.756 433.311 22.208C437.371 27.544 439.343 34.504 439.343 43.204V96.216C439.343 98.072 438.415 99 436.559 99H432.963C431.107 99 430.179 98.072 430.179 96.216V44.828C430.179 29.864 424.031 22.324 411.851 22.324C401.991 22.324 396.075 29.4 393.407 38.216C393.523 40.42 393.639 42.044 393.639 43.204V96.216C393.639 98.072 392.711 99 390.855 99H387.259C385.403 99 384.475 98.072 384.475 96.216ZM481.054 100.044C464.466 99.812 455.766 92.968 455.186 79.396C455.07 77.656 455.882 76.496 457.738 76.032L460.638 75.336C462.494 74.872 463.538 75.568 463.654 77.424C464.002 81.02 464.814 83.456 467.134 86.588C469.454 89.72 474.21 91.576 481.054 91.692C493.466 92.04 498.802 84.616 498.802 73.016V52.832H498.454C497.642 55.5 496.482 57.82 493.35 61.068C490.218 64.2 484.534 66.404 477.458 66.404C468.526 66.404 462.146 63.736 458.086 58.4C454.026 52.948 452.054 45.988 452.054 37.288V17.8C452.054 15.944 452.982 15.016 454.838 15.016H458.434C460.29 15.016 461.218 15.944 461.218 17.8V35.664C461.218 50.628 467.25 58.052 479.314 58.052C486.274 58.052 491.842 54.456 494.626 49.468C497.41 44.364 498.686 39.608 498.802 35.432V17.8C498.802 15.944 499.73 15.016 501.586 15.016H505.298C507.154 15.016 508.082 15.944 508.082 17.8V73.132C508.082 89.488 499.962 100.392 481.054 100.044Z" fill="#20133B"/>
</svg>
