<svg width="438" height="52" viewBox="0 0 438 52" fill="none" xmlns="http://www.w3.org/2000/svg">
<path d="M16.0647 46.0062C22.3367 46.0189 25.6716 42.6336 26.0693 35.8504C26.1353 34.8265 26.7122 34.3797 27.7358 34.5738L29.6552 34.8976C30.6148 35.0916 31.1256 35.6686 31.0596 36.6925C30.8589 40.9801 29.5721 44.3695 27.327 46.861C25.082 49.3524 21.3676 50.561 16.0556 50.5502C10.6156 50.5393 6.77882 48.9315 4.47986 46.4309C3.33032 45.2125 2.43768 43.5467 1.80181 41.4974C0.530208 37.3349 0.218088 33.4302 0.230616 27.2222C0.241594 21.7823 0.505085 18.0708 1.79399 13.6574C3.08316 9.11596 5.20058 6.43223 9.10832 4.58411C11.0943 3.62812 13.3992 3.18477 16.1511 3.19032C18.9031 3.19588 21.2064 3.58453 23.1889 4.29253C29.072 6.73641 30.5351 11.1554 31.1635 16.9167C31.225 18.1328 30.9683 18.5163 29.7517 18.7698L27.7028 19.2137C26.7425 19.4037 26.1672 19.0186 26.1052 18.0584C25.735 11.2097 22.414 7.74697 16.142 7.73432C11.726 7.72541 8.97025 9.57585 7.55618 12.581C6.52766 14.8189 6.01243 16.4179 5.68636 19.4252C5.36029 22.4326 5.35693 24.0966 5.35061 27.2326C5.34609 29.4726 5.3426 31.2006 5.40389 32.5447C5.59072 35.1051 5.83897 38.9456 6.79522 40.8035C8.32489 43.9426 10.6888 45.9954 16.0647 46.0062ZM50.5762 46.0759C53.9682 46.0827 56.6581 45.1282 58.5178 43.2759C60.3777 41.3597 61.3422 39.1216 61.3475 36.4976C61.3528 33.8736 60.3973 31.6317 58.5452 29.7079C56.6931 27.7842 54.007 26.8188 50.615 26.8119C47.5431 26.8057 45.1091 27.7608 43.3773 29.6773C41.6454 31.5938 40.7449 33.832 40.7396 36.456C40.7343 39.08 41.6257 41.3218 43.3499 43.2453C45.0741 45.1048 47.5042 46.0697 50.5762 46.0759ZM66.1205 18.2032L66.0707 42.8431C66.0657 45.3391 66.7681 46.1086 68.3681 46.1118L69.3284 45.9857C69.8406 45.8588 70.0963 46.0513 70.0951 46.6273L70.0911 48.6113C70.0892 49.5713 69.576 50.1462 68.6154 50.4643C68.0391 50.5911 67.335 50.6537 66.439 50.6519C63.303 50.6456 61.5795 48.4021 61.5869 44.7541L61.5873 44.5621L61.3953 44.5617C61.2026 44.8813 61.2017 45.3293 59.983 46.6709C58.5072 48.5239 55.3673 50.5016 50.183 50.6191C45.895 50.6104 42.3777 49.2593 39.6313 46.5018C36.9488 43.7444 35.6117 40.3497 35.6198 36.3177C35.6277 32.4137 36.9784 29.0884 39.672 26.3418C42.4295 23.5954 45.9522 22.2585 50.3042 22.2673C54.9122 22.2766 58.6842 24.2682 59.8971 25.8067L60.7908 26.9605L61.0468 26.961L61.0633 18.769C61.078 11.473 57.7574 7.8183 51.1014 7.80487C45.0214 7.7926 41.6875 10.7299 41.0996 16.6167C41.0334 17.7046 40.4565 18.1514 39.497 17.8935L37.7699 17.442C36.8104 17.184 36.4277 16.5433 36.4937 15.5834C37.1503 7.32871 42.0866 3.24266 51.2386 3.26113C61.1586 3.28115 66.1405 8.28322 66.1205 18.2032ZM92.2356 8.01588C87.5636 8.00645 84.1031 10.2395 82.496 13.7562C80.8891 17.145 80.3065 20.4078 80.2994 23.9278L80.2496 48.6318C80.2475 49.6558 79.7345 50.1667 78.7105 50.1647L76.6625 50.1605C75.6385 50.1585 75.1275 49.6454 75.1296 48.6214L75.2169 5.35753C75.219 4.33353 75.732 3.82257 76.756 3.82463L78.292 3.82773C79.316 3.8298 79.827 4.34283 79.8249 5.36683L79.8108 12.3428L80.0668 12.3433C80.5183 10.6162 81.3537 8.95392 83.1498 6.90954C85.01 4.80129 88.405 3.33614 92.693 3.34479C93.141 3.3457 93.5249 3.41047 93.9727 3.47538C94.6766 3.5408 95.0597 3.98957 95.0581 4.75757L95.0539 6.86956C95.0522 7.70156 94.6034 8.08466 93.7074 8.08285C93.6434 8.08272 92.9396 8.0173 92.2356 8.01588ZM125.723 48.7235L125.781 20.3716C125.797 12.1156 122.414 7.94878 115.694 7.93522C107.758 7.91921 104.861 16.1694 104.852 20.4574L104.796 48.6813C104.793 49.7053 104.28 50.2163 103.256 50.2142L101.272 50.2102C100.248 50.2081 99.7375 49.6951 99.7395 48.6711L99.8268 5.40719C99.8289 4.3832 100.342 3.87223 101.366 3.8743L102.902 3.8774C103.926 3.87946 104.437 4.3925 104.435 5.41649L104.423 11.3685L104.679 11.369C105.259 9.13017 108.279 3.37625 116.791 3.39342C121.719 3.40337 125.3 4.8826 127.534 7.89511C129.768 10.8436 130.848 14.6858 130.839 19.4858L130.779 48.7337C130.777 49.7577 130.264 50.2687 129.24 50.2666L127.256 50.2626C126.232 50.2606 125.721 49.7475 125.723 48.7235ZM151.906 46.2804C155.298 46.2872 157.988 45.3327 159.848 43.4804C161.708 41.5641 162.672 39.3261 162.677 36.7021C162.683 34.0781 161.727 31.8362 159.875 29.9124C158.023 27.9887 155.337 27.0233 151.945 27.0164C148.873 27.0102 146.439 27.9653 144.707 29.8818C142.975 31.7983 142.075 34.0365 142.069 36.6605C142.064 39.2845 142.956 41.5263 144.68 43.4498C146.404 45.3093 148.834 46.2742 151.906 46.2804ZM167.45 18.4077L167.401 43.0476C167.395 45.5436 168.098 46.3131 169.698 46.3163L170.658 46.1902C171.17 46.0633 171.426 46.2558 171.425 46.8318L171.421 48.8158C171.419 49.7758 170.906 50.3507 169.945 50.6688C169.369 50.7956 168.665 50.8582 167.769 50.8564C164.633 50.8501 162.909 48.6066 162.917 44.9586L162.917 44.7666L162.725 44.7662C162.532 45.0858 162.531 45.5338 161.313 46.8754C159.837 48.7284 156.697 50.7061 151.513 50.8236C147.225 50.8149 143.708 49.4638 140.961 46.7063C138.279 43.9489 136.941 40.5542 136.95 36.5222C136.958 32.6182 138.308 29.2929 141.002 26.5463C143.759 23.7999 147.282 22.463 151.634 22.4718C156.242 22.4811 160.014 24.4727 161.227 26.0111L162.121 27.165L162.377 27.1655L162.393 18.9735C162.408 11.6775 159.087 8.02279 152.431 8.00936C146.351 7.99709 143.017 10.9344 142.429 16.8212C142.363 17.9091 141.786 18.3559 140.827 18.098L139.1 17.6465C138.14 17.3885 137.758 16.7478 137.823 15.7879C138.48 7.5332 143.416 3.44716 152.568 3.46563C162.488 3.48564 167.47 8.48771 167.45 18.4077ZM182.641 1.99031L182.63 7.4943L193.702 7.51665C194.726 7.51871 195.237 8.03174 195.235 9.05574L195.232 10.4637C195.23 11.4877 194.717 11.9987 193.693 11.9966L182.621 11.9743L182.574 35.2702C182.559 42.6302 185.688 46.3486 191.96 46.3612C192.792 46.3629 193.688 46.3007 194.712 46.1108C195.545 45.9204 196.248 46.3699 196.246 47.3299L196.243 48.8659C196.241 49.9539 195.727 50.5288 194.703 50.6548C193.487 50.8443 192.399 50.9061 191.439 50.9042C182.159 50.8854 177.496 46.14 177.515 36.732L177.565 11.9641L174.941 11.9588C173.917 11.9567 173.406 11.4437 173.408 10.4197L173.411 9.0117C173.413 7.9877 173.926 7.47674 174.95 7.4788L177.574 7.4841L177.585 1.98011C177.587 0.956113 178.101 0.445147 179.125 0.447213L181.109 0.451217C182.133 0.453284 182.643 0.966317 182.641 1.99031ZM209.932 18.3014L209.876 45.9494L212.756 45.9552C213.78 45.9572 214.291 46.4703 214.289 47.4943L214.286 48.9023C214.284 49.9263 213.771 50.4372 212.747 50.4352L201.867 50.4132C200.843 50.4111 200.332 49.8981 200.334 48.8741L200.337 47.4661C200.339 46.4421 200.852 45.9312 201.876 45.9332L204.82 45.9392L204.876 18.2912L201.932 18.2853C200.908 18.2832 200.397 17.7702 200.399 16.7462L200.402 15.3382C200.404 14.3142 200.917 13.8032 201.941 13.8053L212.821 13.8272C213.845 13.8293 214.356 14.3423 214.353 15.3663L214.351 16.7743C214.349 17.7983 213.836 18.3093 212.812 18.3072L209.932 18.3014ZM207.323 10.4881C204.507 10.4825 202.336 8.30207 202.341 5.67807C202.346 3.11808 204.527 0.946476 207.343 0.952159C209.967 0.957454 212.266 3.1381 212.261 5.69809C212.256 8.32209 209.947 10.4934 207.323 10.4881ZM235.272 46.4486C241.544 46.4613 244.879 43.076 245.276 36.2928C245.342 35.4609 245.983 34.8222 246.943 35.0161L248.862 35.34C249.886 35.4701 250.333 36.111 250.266 37.2629C250.066 41.4865 248.779 44.8119 246.534 47.3033C244.289 49.7948 240.575 51.0033 235.263 50.9926C229.823 50.9816 225.986 49.3739 223.687 46.8732C222.537 45.6549 221.645 43.9891 221.009 41.9398C219.737 37.7773 219.425 33.8726 219.438 27.6646C219.449 22.2246 219.712 18.5132 221.001 14.0998C222.806 7.63938 226.974 3.87178 235.358 3.6327C240.606 3.64329 244.38 4.86691 246.615 7.36743C248.85 9.80394 250.123 13.0705 250.371 17.231C250.433 18.3192 249.983 19.0223 248.959 19.2122L246.91 19.656C245.95 19.8461 245.374 19.461 245.312 18.5008C244.942 11.6521 241.621 8.18935 235.349 8.1767C230.933 8.16778 228.177 10.0182 226.763 13.0234C225.735 15.2613 225.219 16.8603 224.893 19.8676C224.567 22.875 224.564 24.539 224.558 27.675C224.553 29.915 224.55 31.643 224.611 32.9871C224.798 35.5475 225.046 39.388 226.002 41.2459C227.532 44.385 229.896 46.4378 235.272 46.4486ZM302.533 49.0804L302.603 14.3284L289.701 33.5024C289.251 34.0775 288.483 34.076 288.037 33.4991L275.275 14.2733L275.205 49.0252C275.203 50.0492 274.69 50.5602 273.666 50.5581L271.682 50.5541C270.658 50.552 270.147 50.039 270.149 49.015L270.236 5.75109C270.239 4.7271 270.752 4.21613 271.776 4.2182L272.992 4.22065C274.016 4.22272 274.783 4.67227 275.357 5.50543L288.883 26.1408L302.621 5.56045C303.199 4.72962 303.968 4.28316 304.992 4.28523L306.144 4.28756C307.168 4.28962 307.678 4.80266 307.676 5.82665L307.589 49.0906C307.587 50.1146 307.074 50.6255 306.05 50.6235L304.066 50.6195C303.042 50.6174 302.531 50.1044 302.533 49.0804ZM321.082 5.85371L321.025 34.2057C321.009 42.4616 324.328 46.6283 331.048 46.6419C338.984 46.6579 341.753 38.4715 341.889 34.1198L341.946 5.89581C341.948 4.87182 342.461 4.36085 343.485 4.36291L345.469 4.36692C346.493 4.36899 347.004 4.88202 347.002 5.90601L346.915 49.1699C346.913 50.1939 346.4 50.7049 345.376 50.7028L343.84 50.6997C342.816 50.6977 342.305 50.1846 342.307 49.1606L342.319 43.2086L342.063 43.2081C341.483 45.447 338.463 51.2009 329.951 51.1837C325.023 51.1738 321.442 49.6945 319.208 46.746C317.038 43.7336 315.958 39.8914 315.967 35.0914L316.026 5.8435C316.028 4.81951 316.542 4.30854 317.566 4.31061L319.55 4.31461C320.574 4.31668 321.084 4.82971 321.082 5.85371ZM368.233 46.7809C374.569 46.7937 377.775 44.1122 377.786 38.7362C377.811 26.3842 354.376 31.8409 354.408 15.713C354.414 12.577 355.572 9.82732 357.881 7.46397C360.253 5.10075 363.648 3.8916 368.192 3.90077C377.152 3.91885 382.007 8.34466 382.697 15.5141C382.758 16.6022 382.309 17.1773 381.285 17.3032L379.492 17.5556C378.468 17.6815 377.893 17.2324 377.831 16.2723C377.265 11.0871 374.135 8.45678 368.311 8.44502C362.359 8.43301 359.472 11.6272 359.464 15.7872C359.441 26.9872 382.939 22.2346 382.905 39.1945C382.898 42.7145 381.74 45.5922 379.367 47.8914C376.995 50.1906 373.28 51.3351 368.096 51.3247C362.976 51.3143 359.011 49.8343 356.904 47.5901C354.86 45.282 353.841 43.0399 353.526 40.4793C353.4 39.391 353.849 38.8159 354.874 38.69L356.602 38.4375C357.691 38.2477 358.266 38.6968 358.392 39.7211C358.959 43.8182 362.153 46.7687 368.233 46.7809ZM396.904 18.6787L396.848 46.3267L399.728 46.3325C400.752 46.3346 401.263 46.8476 401.261 47.8716L401.258 49.2796C401.256 50.3036 400.743 50.8146 399.719 50.8125L388.839 50.7905C387.815 50.7885 387.304 50.2754 387.306 49.2514L387.309 47.8434C387.311 46.8194 387.824 46.3085 388.848 46.3105L391.792 46.3165L391.848 18.6685L388.904 18.6626C387.88 18.6605 387.369 18.1475 387.371 17.1235L387.374 15.7155C387.376 14.6915 387.889 14.1805 388.913 14.1826L399.793 14.2046C400.817 14.2066 401.328 14.7197 401.326 15.7437L401.323 17.1517C401.321 18.1757 400.808 18.6866 399.784 18.6846L396.904 18.6787ZM394.295 10.8655C391.479 10.8598 389.308 8.6794 389.313 6.0554C389.318 3.49541 391.499 1.3238 394.315 1.32948C396.939 1.33478 399.238 3.51543 399.233 6.07542C399.228 8.69942 396.919 10.8708 394.295 10.8655ZM422.244 46.8259C428.516 46.8386 431.851 43.4533 432.248 36.6701C432.314 35.8382 432.955 35.1995 433.915 35.3935L435.834 35.7173C436.858 35.8474 437.305 36.4883 437.238 37.6402C437.038 41.8638 435.751 45.1892 433.506 47.6807C431.261 50.1721 427.547 51.3807 422.235 51.3699C416.795 51.359 412.958 49.7512 410.659 47.2506C409.509 46.0322 408.617 44.3664 407.981 42.3172C406.709 38.1546 406.397 34.2499 406.41 28.042C406.421 22.602 406.684 18.8905 407.973 14.4771C409.778 8.01671 413.946 4.24911 422.33 4.01003C427.578 4.02062 431.352 5.24424 433.587 7.74475C435.822 10.1813 437.095 13.4478 437.343 17.6084C437.405 18.6965 436.955 19.3996 435.931 19.5895L433.882 20.0334C432.922 20.2234 432.346 19.8383 432.284 18.8782C431.914 12.0294 428.593 8.56668 422.321 8.55402C417.905 8.54511 415.149 10.3956 413.735 13.4007C412.707 15.6386 412.192 17.2376 411.866 20.2449C411.539 23.2523 411.536 24.9163 411.53 28.0523C411.525 30.2923 411.522 32.0203 411.583 33.3644C411.77 35.9248 412.018 39.7653 412.974 41.6232C414.504 44.7623 416.868 46.8151 422.244 46.8259Z" fill="#FFB800"/>
</svg>
