<svg width="169" height="93" viewBox="0 0 169 93" fill="none" xmlns="http://www.w3.org/2000/svg">
<path d="M12.1938 20.606L22.4178 20.6276C23.1858 20.6293 23.5691 21.0141 23.5676 21.7821L23.5584 26.5821C23.5432 34.502 19.7916 38.4301 12.2556 38.4141C8.17563 38.4055 5.29794 37.1994 3.57355 35.3237C2.7113 34.4099 2.0417 33.1605 1.56474 31.5755C0.610743 28.4534 0.37637 25.5249 0.385317 20.8689C0.393066 16.8369 0.590507 14.0054 1.55687 10.6954C2.91 5.94625 6.03553 3.07287 12.3239 2.89419C16.3079 2.90264 19.138 3.86864 20.8143 5.79219C22.4907 7.66775 23.4458 10.2138 23.5837 13.4301C23.6302 14.1982 23.2454 14.6294 22.5251 14.7718L21.2286 15.0091C20.4603 15.1515 20.029 14.8145 19.9825 14.0465C19.7043 8.90985 17.1653 6.31246 12.3173 6.30219C9.00534 6.29517 6.93867 7.68279 5.87834 9.93655C5.10729 11.5189 4.7209 12.7661 4.47656 15.0216C4.23223 17.2771 4.22983 18.5251 4.22531 20.8771C4.22208 22.5571 4.21959 23.8531 4.26565 24.8612C4.40596 26.7815 4.59234 29.7099 5.30966 31.1034C6.31351 33.2655 8.37372 35.2379 12.2622 35.0061C17.3982 35.017 19.9475 32.2384 19.9582 26.6704L19.9634 23.9824L12.1874 23.966C11.4194 23.9643 11.0361 23.5795 11.0376 22.8115L11.0396 21.7555C11.0411 20.9875 11.4258 20.6043 12.1938 20.606ZM32.9635 4.47394L32.9226 25.7379C32.9107 31.9299 35.4007 35.0552 40.4407 35.0659C46.3927 35.0785 48.4685 28.9389 48.5708 25.6751L48.6115 4.5071C48.613 3.7391 48.9977 3.35592 49.7657 3.35754L51.2537 3.3607C52.0217 3.36233 52.4049 3.74714 52.4035 4.51514L52.3411 36.9631C52.3396 37.7311 51.9549 38.1143 51.1869 38.1126L50.0349 38.1102C49.2669 38.1086 48.8836 37.7238 48.8851 36.9558L48.8937 32.4918L48.7017 32.4914C48.2665 34.1704 46.0022 38.4856 39.6182 38.4721C35.9222 38.4643 33.2363 37.3546 31.5606 35.143C29.9329 32.8836 29.1224 30.0019 29.1294 26.4019L29.1715 4.4659C29.173 3.6979 29.5577 3.31472 30.3257 3.31635L31.8137 3.3195C32.5817 3.32113 32.965 3.70594 32.9635 4.47394ZM64.9623 14.0458L64.9225 34.7817L67.0824 34.7863C67.8504 34.7879 68.2337 35.1728 68.2322 35.9408L68.2302 36.9968C68.2287 37.7648 67.844 38.1479 67.076 38.1463L58.916 38.129C58.148 38.1274 57.7647 37.7426 57.7662 36.9746L57.7683 35.9186C57.7697 35.1506 58.1545 34.7674 58.9225 34.769L61.1305 34.7737L61.1703 14.0377L58.9623 14.0331C58.1943 14.0314 57.8111 13.6466 57.8125 12.8786L57.8146 11.8226C57.816 11.0546 58.2008 10.6714 58.9688 10.6731L67.1288 10.6904C67.8968 10.692 68.28 11.0768 68.2785 11.8448L68.2765 12.9008C68.275 13.6688 67.8903 14.052 67.1223 14.0504L64.9623 14.0458ZM63.0056 8.18562C60.8936 8.18114 59.2647 6.54568 59.2685 4.57769C59.2722 2.65769 60.9073 1.02915 63.0193 1.03363C64.9873 1.0378 66.7122 2.67346 66.7085 4.59345C66.7047 6.56145 64.9736 8.18979 63.0056 8.18562ZM78.5134 1.88247L78.5055 6.01046L86.8095 6.02806C87.5775 6.02969 87.9608 6.4145 87.9593 7.1825L87.9573 8.2385C87.9558 9.00649 87.571 9.38968 86.803 9.38805L78.4991 9.37045L78.4655 26.8424C78.4549 32.3624 80.8015 35.1514 85.5055 35.1614C86.1295 35.1627 86.8016 35.1161 87.5699 34.9737C88.1942 34.8311 88.7215 35.1682 88.7201 35.8882L88.7179 37.0402C88.7163 37.8562 88.3315 38.2874 87.5633 38.3817C86.6511 38.5238 85.835 38.5701 85.115 38.5685C78.155 38.5538 74.6578 34.9944 74.6714 27.9384L74.7071 9.36242L72.7391 9.35825C71.9711 9.35662 71.5878 8.97181 71.5893 8.20381L71.5913 7.14781C71.5928 6.37981 71.9775 5.99663 72.7455 5.99825L74.7135 6.00242L74.7215 1.87443C74.7229 1.10643 75.1077 0.723247 75.8757 0.724875L77.3637 0.728028C78.1317 0.729656 78.5149 1.11447 78.5134 1.88247ZM103.219 35.1989C105.763 35.2043 107.781 34.4886 109.175 33.0995C110.57 31.6625 111.293 29.984 111.297 28.016C111.301 26.048 110.584 24.3665 109.195 22.9235C107.806 21.4806 105.791 20.7563 103.247 20.7509C100.943 20.746 99.1177 21.4622 97.819 22.8994C96.5202 24.3367 95.845 26.0153 95.8412 27.9832C95.8374 29.9512 96.5062 31.6327 97.7994 33.0754C99.0927 34.4702 100.915 35.194 103.219 35.1989ZM114.876 14.2956L114.84 32.7755C114.836 34.6475 115.363 35.2246 116.563 35.2272L117.284 35.1327C117.668 35.0375 117.859 35.1819 117.859 35.6139L117.856 37.1019C117.854 37.8219 117.47 38.2531 116.749 38.4916C116.317 38.5867 115.789 38.6335 115.117 38.6321C112.765 38.6271 111.472 36.9444 111.477 34.2084L111.478 34.0644L111.334 34.0641C111.189 34.3038 111.188 34.6398 110.275 35.6459C109.168 37.0355 106.813 38.5185 102.925 38.6063C99.7088 38.5995 97.0707 37.5859 95.0107 35.5175C92.9987 33.4492 91.9956 30.9031 92.0014 27.8791C92.007 24.9511 93.0198 22.4573 95.0398 20.3975C97.1077 18.3379 99.7497 17.3355 103.014 17.3424C106.47 17.3497 109.299 18.8437 110.209 19.9977L110.879 20.8631L111.071 20.8635L111.083 14.7195C111.093 9.24753 108.602 6.50625 103.611 6.49567C99.0505 6.486 96.5503 8.68871 96.1098 13.1038C96.0602 13.9197 95.6276 14.2548 94.908 14.0612L93.6126 13.7225C92.893 13.529 92.6059 13.0484 92.6553 12.3285C93.1472 6.13749 96.8491 3.07333 103.713 3.08787C111.153 3.10364 114.89 6.85557 114.876 14.2956ZM134.941 6.65807C131.437 6.65064 128.842 8.32514 127.637 10.9626C126.432 13.504 125.995 15.9511 125.99 18.5911L125.955 37.1191C125.953 37.8871 125.568 38.2703 124.8 38.2686L123.264 38.2654C122.496 38.2638 122.113 37.879 122.115 37.111L122.177 4.66301C122.178 3.89501 122.563 3.51183 123.331 3.51345L124.483 3.51589C125.251 3.51752 125.634 3.90234 125.633 4.67033L125.623 9.90233L125.815 9.90273C126.153 8.60745 126.78 7.36077 128.127 5.82762C129.522 4.24657 132.068 3.14797 135.284 3.15478C135.62 3.1555 135.908 3.20411 136.244 3.25282C136.772 3.30194 137.059 3.63855 137.058 4.21455L137.055 5.79854C137.054 6.42254 136.717 6.70983 136.045 6.7084C135.997 6.7083 135.469 6.65918 134.941 6.65807ZM12.1584 89.006C16.8624 89.016 19.3633 86.4773 19.6611 81.3899C19.7105 80.622 20.1432 80.2869 20.9109 80.4326L22.3504 80.6756C23.0702 80.8211 23.4533 81.254 23.4038 82.0219C23.2537 85.2375 22.2888 87.7795 20.6052 89.6479C18.9216 91.5164 16.1358 92.4225 12.1519 92.414C8.07186 92.4054 5.19417 91.1993 3.46977 89.3236C2.60753 88.4098 1.93793 87.1604 1.46088 85.6234C0.506879 82.5013 0.272507 79.5728 0.281454 74.9168C0.289294 70.8368 0.486644 68.0533 1.45301 64.7433C2.41955 61.3373 4.00742 59.3247 6.93809 57.9389C8.42747 57.2221 10.1561 56.8897 12.2201 56.8941C14.2841 56.8985 16.0115 57.1901 17.4985 57.7213C21.911 59.5546 23.0086 62.869 23.4803 67.19C23.5266 68.1021 23.334 68.3897 22.4217 68.5797L20.885 68.9125C20.1648 69.055 19.7333 68.766 19.6867 68.0459C19.4086 62.9093 16.9176 60.3121 12.2136 60.3021C8.90157 60.2951 6.8349 61.6827 5.77457 63.9364C5.00334 65.6148 4.61703 66.814 4.3727 69.0695C4.12836 71.325 4.12597 72.573 4.12145 74.925C4.11822 76.605 4.11573 77.901 4.16179 78.9091C4.3021 80.8294 4.48856 83.7098 5.20589 85.1033C6.35337 87.4577 8.12641 88.9975 12.1584 89.006ZM28.8279 88.0334L28.8963 52.4654C28.8978 51.6974 29.2825 51.3142 30.0505 51.3159L31.5385 51.319C32.3065 51.3207 32.6897 51.7055 32.6883 52.4735L32.6218 87.0814C32.6189 88.5694 33.146 89.0505 34.298 89.053C34.538 89.0535 34.7781 89.006 35.0182 88.9585C35.4503 88.9114 35.642 89.0558 35.6412 89.4398L35.6383 90.9758C35.6369 91.6958 35.252 92.175 34.5317 92.3175C34.1475 92.4126 33.6194 92.4595 32.9474 92.4581C30.2114 92.4523 28.8223 90.9614 28.8279 88.0334ZM49.9594 89.0861C52.5034 89.0915 54.5208 88.3758 55.9155 86.9868C57.3103 85.5497 58.0335 83.8712 58.0373 81.9033C58.041 79.9353 57.3243 78.2537 55.935 76.8108C54.5458 75.3678 52.5312 74.6436 49.9872 74.6382C47.6832 74.6333 45.8578 75.3494 44.5591 76.7867C43.2603 78.2239 42.5851 79.9025 42.5813 81.8705C42.5775 83.8385 43.2463 85.5199 44.5395 86.9627C45.8328 88.3574 47.6554 89.0813 49.9594 89.0861ZM61.6156 68.1828L61.5801 86.6628C61.5765 88.5348 62.1034 89.1119 63.3034 89.1144L64.0236 89.02C64.4078 88.9248 64.5995 89.0692 64.5987 89.5012L64.5958 90.9892C64.5944 91.7092 64.2096 92.1404 63.4891 92.3788C63.057 92.4739 62.5289 92.5208 61.8569 92.5194C59.5049 92.5144 58.2121 90.8316 58.2174 88.0956L58.2176 87.9516L58.0736 87.9513C57.9292 88.191 57.9285 88.527 57.0146 89.5331C55.9079 90.9228 53.5531 92.4058 49.6649 92.4935C46.4489 92.4867 43.8108 91.4731 41.7508 89.4048C39.7388 87.3365 38.7357 84.7904 38.7415 81.7664C38.7471 78.8384 39.7599 76.3445 41.7799 74.2848C43.8478 72.2252 46.4898 71.2228 49.7538 71.2297C53.2097 71.237 56.0389 72.731 56.9487 73.8849L57.619 74.7503L57.811 74.7508L57.8228 68.6068C57.8333 63.1348 55.3426 60.3935 50.3506 60.3829C45.7906 60.3732 43.2904 62.576 42.8499 66.991C42.8003 67.8069 42.3677 68.142 41.648 67.9485L40.3527 67.6097C39.6331 67.4162 39.346 66.9356 39.3954 66.2157C39.8873 60.0247 43.5892 56.9606 50.4532 56.9751C57.8931 56.9909 61.6299 60.7428 61.6156 68.1828ZM78.3622 89.1943C83.1142 89.2044 85.518 87.1935 85.5258 83.1615C85.5436 73.8975 67.9677 77.9883 67.9909 65.8923C67.9954 63.5403 68.8634 61.4781 70.5948 59.7058C72.3742 57.9336 74.92 57.027 78.328 57.0342C85.048 57.0484 88.6896 60.3682 89.2072 65.7453C89.2537 66.5614 88.9168 66.9927 88.1487 67.087L86.8043 67.2762C86.0361 67.3706 85.6048 67.0336 85.5581 66.3135C85.1336 62.4246 82.7854 60.4517 78.4174 60.4424C73.9534 60.4329 71.7888 62.8284 71.7828 65.9483C71.7667 74.3483 89.3896 70.7857 89.3651 83.5056C89.36 86.1456 88.4919 88.3038 86.7126 90.028C84.9333 91.7523 82.1476 92.6104 78.2596 92.6021C74.4196 92.594 71.4458 91.4837 69.865 89.8003C68.3323 88.0691 67.5675 86.3875 67.3312 84.467C67.2368 83.6508 67.5736 83.2195 68.3418 83.1251L69.6382 82.9358C70.4544 82.7936 70.8858 83.1305 70.9803 83.8987C71.4064 86.9716 73.8022 89.1847 78.3622 89.1943ZM104.19 89.2491C108.942 89.2592 111.346 87.2482 111.354 83.2162C111.372 73.9523 93.7957 78.043 93.819 65.947C93.8235 63.5951 94.6915 61.5329 96.4229 59.7606C98.2023 57.9883 100.748 57.0817 104.156 57.0889C110.876 57.1032 114.518 60.4229 115.035 65.8C115.082 66.6161 114.745 67.0474 113.977 67.1418L112.632 67.3309C111.864 67.4253 111.433 67.0884 111.386 66.3683C110.962 62.4794 108.613 60.5064 104.245 60.4971C99.7815 60.4877 97.6169 62.8831 97.6109 66.0031C97.5947 74.4031 115.218 70.8404 115.193 83.5604C115.188 86.2004 114.32 88.3585 112.541 90.0828C110.761 91.807 107.976 92.6651 104.088 92.6569C100.248 92.6487 97.2738 91.5384 95.6931 89.8551C94.1604 88.1238 93.3956 86.4422 93.1593 84.5217C93.0649 83.7055 93.4017 83.2742 94.1699 83.1798L95.4662 82.9906C96.2825 82.8483 96.7139 83.1852 96.8084 83.9534C97.2345 87.0263 99.6302 89.2394 104.19 89.2491ZM131.65 89.2593C136.402 89.2693 138.519 86.8738 138.909 83.8506C139.006 83.1309 139.439 82.7958 140.207 82.9414L141.31 83.1837C142.078 83.3294 142.413 83.8101 142.267 84.5778C142.023 86.7373 141.012 88.6551 139.28 90.2834C137.597 91.8639 135.004 92.6744 131.548 92.6671C127.468 92.6584 124.447 91.26 122.674 89.1923C121.813 88.1344 121.143 86.789 120.618 85.1559C119.617 81.8418 119.335 78.6732 119.344 74.0652C119.351 70.0812 119.597 67.2977 120.562 64.2277C121.963 59.8147 125.04 57.3252 131.088 57.146C134.784 57.1538 137.566 58.5037 139.242 60.5713C140.056 61.581 140.725 62.8304 141.202 64.3675C142.156 67.4415 142.439 70.3221 142.431 74.1621L142.43 74.6901C142.43 74.9781 142.286 75.1218 141.998 75.1212L123.182 75.0813C123.175 78.5853 123.363 80.7937 123.982 83.435C124.983 87.0851 127.139 89.0577 131.65 89.2593ZM123.236 71.6734L138.596 71.706C138.512 65.4658 136.986 60.5665 131.082 60.554C128.01 60.5475 125.895 61.647 124.787 63.9007C123.775 66.0585 123.387 68.2657 123.236 71.6734ZM157.487 89.362C162.239 89.3721 164.643 87.3612 164.651 83.3292C164.668 74.0652 147.093 78.156 147.116 66.06C147.12 63.708 147.988 61.6458 149.72 59.8735C151.499 58.1013 154.045 57.1947 157.453 57.2019C164.173 57.2161 167.814 60.5359 168.332 65.913C168.379 66.7291 168.042 67.1604 167.273 67.2547L165.929 67.4439C165.161 67.5382 164.73 67.2013 164.683 66.4812C164.258 62.5923 161.91 60.6193 157.542 60.6101C153.078 60.6006 150.914 62.996 150.908 66.116C150.892 74.516 168.514 70.9534 168.49 83.6733C168.485 86.3133 167.617 88.4715 165.837 90.1957C164.058 91.92 161.272 92.7781 157.384 92.7698C153.544 92.7617 150.571 91.6514 148.99 89.968C147.457 88.2368 146.692 86.5551 146.456 84.6346C146.362 83.8184 146.698 83.3872 147.467 83.2928L148.763 83.1035C149.579 82.9613 150.011 83.2982 150.105 84.0664C150.531 87.1393 152.927 89.3524 157.487 89.362Z" fill="white"/>
</svg>
