<svg width="330" height="42" viewBox="0 0 330 42" fill="none" xmlns="http://www.w3.org/2000/svg">
<path d="M28.79 39.68V9.815L17.735 26.315C17.35 26.81 16.69 26.81 16.305 26.315L5.305 9.815V39.68C5.305 40.56 4.865 41 3.985 41H2.28C1.4 41 0.96 40.56 0.96 39.68V2.5C0.96 1.62 1.4 1.18 2.28 1.18H3.325C4.205 1.18 4.865 1.565 5.36 2.28L17.02 19.99L28.79 2.28C29.285 1.565 29.945 1.18 30.825 1.18H31.815C32.695 1.18 33.135 1.62 33.135 2.5V39.68C33.135 40.56 32.695 41 31.815 41H30.11C29.23 41 28.79 40.56 28.79 39.68ZM47.3508 5.085V37.15H49.8258C50.7058 37.15 51.1458 37.59 51.1458 38.47V39.68C51.1458 40.56 50.7058 41 49.8258 41H40.4758C39.5958 41 39.1558 40.56 39.1558 39.68V38.47C39.1558 37.59 39.5958 37.15 40.4758 37.15H43.0058V5.085H40.4758C39.5958 5.085 39.1558 4.645 39.1558 3.765V2.5C39.1558 1.62 39.5958 1.18 40.4758 1.18H49.8258C50.7058 1.18 51.1458 1.62 51.1458 2.5V3.765C51.1458 4.645 50.7058 5.085 49.8258 5.085H47.3508ZM57.1416 39.68V2.5C57.1416 1.62 57.5816 1.18 58.4616 1.18H69.1316C78.8666 1.18 83.7616 5.195 83.7616 13.17C83.7616 19.385 80.0216 23.18 73.6966 24.335L77.9866 28.9C79.3616 30.275 80.4066 31.32 81.2316 32.035C82.0566 32.75 83.1566 33.575 84.6416 34.51C87.5566 36.435 91.0766 37.205 95.4766 37.205C96.4666 37.205 97.5666 37.15 98.8316 36.985C99.7116 36.93 100.152 37.315 100.152 38.195V39.405C100.152 40.285 99.7116 40.78 98.8316 40.89C97.3466 41.055 96.0816 41.165 94.9266 41.165C89.7016 41.165 85.4666 40.065 82.1116 37.81C80.4066 36.655 79.1416 35.665 78.2066 34.84C77.3266 34.015 76.2266 32.86 74.9066 31.375L68.8566 24.72H61.4866V39.68C61.4866 40.56 61.0466 41 60.1666 41H58.4616C57.5816 41 57.1416 40.56 57.1416 39.68ZM98.9416 23.18H89.4816L88.2716 27.745C88.1066 28.57 87.5566 29.01 86.6216 29.01H85.4116C84.5866 29.01 84.2566 28.405 84.4766 27.745L91.7916 2.445C92.0666 1.62 92.6166 1.18 93.4966 1.18H94.9266C95.8066 1.18 96.3566 1.62 96.6316 2.445L104.002 27.745C104.222 28.405 103.892 29.01 103.067 29.01H101.857C100.922 29.01 100.372 28.57 100.207 27.745L98.9416 23.18ZM79.3616 13.115C79.3616 7.615 75.2916 5.085 68.8566 5.085H61.4866V20.815H68.9666C75.4016 20.815 79.3616 18.395 79.3616 13.115ZM90.3066 20.155H98.1716L94.2666 5.58L90.3066 20.155ZM121.133 37.535C126.523 37.535 129.383 34.62 129.713 28.79C129.768 27.91 130.263 27.525 131.143 27.69L132.793 27.965C133.618 28.13 134.058 28.625 134.003 29.505C133.838 33.19 132.738 36.105 130.813 38.25C128.888 40.395 125.698 41.44 121.133 41.44C116.458 41.44 113.158 40.065 111.178 37.92C110.188 36.875 109.418 35.445 108.868 33.685C107.768 30.11 107.493 26.755 107.493 21.42C107.493 16.745 107.713 13.555 108.813 9.76C109.913 5.855 111.728 3.545 115.083 1.95C116.788 1.125 118.768 0.739997 121.133 0.739997C123.498 0.739997 125.478 1.07 127.183 1.675C132.243 3.765 133.508 7.56 134.058 12.51C134.113 13.555 133.893 13.885 132.848 14.105L131.088 14.49C130.263 14.655 129.768 14.325 129.713 13.5C129.383 7.615 126.523 4.645 121.133 4.645C117.338 4.645 114.973 6.24 113.763 8.825C112.883 10.75 112.443 12.125 112.168 14.71C111.893 17.295 111.893 18.725 111.893 21.42C111.893 23.345 111.893 24.83 111.948 25.985C112.113 28.185 112.333 31.485 113.158 33.08C114.478 35.775 116.513 37.535 121.133 37.535ZM140.286 39.68V2.5C140.286 1.62 140.726 1.18 141.606 1.18H143.311C144.191 1.18 144.631 1.62 144.631 2.5V37.15H166.906C167.786 37.15 168.226 37.59 168.226 38.47V39.68C168.226 40.56 167.786 41 166.906 41H141.606C140.726 41 140.286 40.56 140.286 39.68ZM153.981 16.58V25.49H165.311C166.191 25.49 166.631 25.93 166.631 26.81V27.69C166.631 28.57 166.191 29.01 165.311 29.01H151.231C150.351 29.01 149.911 28.57 149.911 27.69V2.5C149.911 1.62 150.351 1.18 151.231 1.18H165.311C166.191 1.18 166.631 1.62 166.631 2.5V3.38C166.631 4.26 166.191 4.7 165.311 4.7H153.981V13.06H163.111C163.991 13.06 164.431 13.5 164.431 14.38V15.26C164.431 16.14 163.991 16.58 163.111 16.58H153.981ZM212.213 39.68V9.815L201.158 26.315C200.773 26.81 200.113 26.81 199.728 26.315L188.728 9.815V39.68C188.728 40.56 188.288 41 187.408 41H185.703C184.823 41 184.383 40.56 184.383 39.68V2.5C184.383 1.62 184.823 1.18 185.703 1.18H186.748C187.628 1.18 188.288 1.565 188.783 2.28L200.443 19.99L212.213 2.28C212.708 1.565 213.368 1.18 214.248 1.18H215.238C216.118 1.18 216.558 1.62 216.558 2.5V39.68C216.558 40.56 216.118 41 215.238 41H213.533C212.653 41 212.213 40.56 212.213 39.68ZM246.834 26.975V2.5C246.834 1.62 247.274 1.18 248.154 1.18H249.859C250.739 1.18 251.179 1.62 251.179 2.5V27.36C251.179 36.105 246.669 41.44 237.704 41.44C228.739 41.44 224.284 36.105 224.284 27.36V2.5C224.284 1.62 224.724 1.18 225.604 1.18H227.309C228.189 1.18 228.629 1.62 228.629 2.5V26.975C228.629 33.355 231.984 37.535 237.704 37.535C243.424 37.535 246.834 33.355 246.834 26.975ZM269.606 37.59C275.051 37.59 277.801 35.28 277.801 30.66C277.801 20.045 257.671 24.775 257.671 10.915C257.671 8.22 258.661 5.855 260.641 3.82C262.676 1.785 265.591 0.739997 269.496 0.739997C277.251 0.739997 281.541 4.535 281.981 10.695C282.036 11.63 281.651 12.125 280.771 12.235L279.231 12.455C278.351 12.565 277.856 12.18 277.801 11.355C277.306 6.9 274.611 4.645 269.606 4.645C264.491 4.645 262.016 7.395 262.016 10.97C262.016 20.595 282.201 16.47 282.201 31.045C282.201 37.15 278.351 41.44 269.496 41.495C265.591 41.55 262.566 40.67 260.476 38.855C258.441 37.04 257.231 34.84 256.956 32.2C256.901 31.485 257.396 30.715 258.111 30.66L259.596 30.44C260.531 30.275 261.026 30.66 261.136 31.54C261.631 35.06 264.381 37.59 269.606 37.59ZM294.636 5.085V37.15H297.111C297.991 37.15 298.431 37.59 298.431 38.47V39.68C298.431 40.56 297.991 41 297.111 41H287.761C286.881 41 286.441 40.56 286.441 39.68V38.47C286.441 37.59 286.881 37.15 287.761 37.15H290.291V5.085H287.761C286.881 5.085 286.441 4.645 286.441 3.765V2.5C286.441 1.62 286.881 1.18 287.761 1.18H297.111C297.991 1.18 298.431 1.62 298.431 2.5V3.765C298.431 4.645 297.991 5.085 297.111 5.085H294.636ZM316.533 37.535C321.923 37.535 324.783 34.62 325.113 28.79C325.168 27.91 325.663 27.525 326.543 27.69L328.193 27.965C329.018 28.13 329.458 28.625 329.403 29.505C329.238 33.19 328.138 36.105 326.213 38.25C324.288 40.395 321.098 41.44 316.533 41.44C311.858 41.44 308.558 40.065 306.578 37.92C305.588 36.875 304.818 35.445 304.268 33.685C303.168 30.11 302.893 26.755 302.893 21.42C302.893 16.745 303.113 13.555 304.213 9.76C305.313 5.855 307.128 3.545 310.483 1.95C312.188 1.125 314.168 0.739997 316.533 0.739997C318.898 0.739997 320.878 1.07 322.583 1.675C327.643 3.765 328.908 7.56 329.458 12.51C329.513 13.555 329.293 13.885 328.248 14.105L326.488 14.49C325.663 14.655 325.168 14.325 325.113 13.5C324.783 7.615 321.923 4.645 316.533 4.645C312.738 4.645 310.373 6.24 309.163 8.825C308.283 10.75 307.843 12.125 307.568 14.71C307.293 17.295 307.293 18.725 307.293 21.42C307.293 23.345 307.293 24.83 307.348 25.985C307.513 28.185 307.733 31.485 308.558 33.08C309.878 35.775 311.913 37.535 316.533 37.535Z" fill="black"/>
</svg>
