<svg width="181" height="93" viewBox="0 0 181 93" fill="none" xmlns="http://www.w3.org/2000/svg">
<path d="M0.242824 36.4827L0.305179 4.03474C0.306655 3.26675 0.691392 2.88356 1.45939 2.88519L10.9154 2.90523C19.4114 2.92323 23.6766 6.43628 23.6632 13.3963C23.65 20.3083 18.6513 23.7537 10.7793 23.737L4.05935 23.7227L4.03482 36.4907C4.03334 37.2587 3.6486 37.6419 2.8806 37.6403L1.39261 37.6371C0.62461 37.6355 0.241348 37.2507 0.242824 36.4827ZM10.6688 6.31271L4.09284 6.29877L4.0659 20.3147L10.7379 20.3289C16.3539 20.3408 19.8141 18.1401 19.8233 13.3401C19.8326 8.54014 16.2848 6.32461 10.6688 6.31271ZM33.9341 13.61L33.8942 34.346L36.0542 34.3506C36.8222 34.3522 37.2055 34.737 37.204 35.505L37.202 36.561C37.2005 37.329 36.8158 37.7122 36.0478 37.7106L27.8878 37.6933C27.1198 37.6916 26.7365 37.3068 26.738 36.5388L26.74 35.4828C26.7415 34.7148 27.1263 34.3317 27.8943 34.3333L30.1023 34.338L30.1421 13.602L27.9341 13.5973C27.1661 13.5957 26.7828 13.2109 26.7843 12.4429L26.7863 11.3869C26.7878 10.6189 27.1726 10.2357 27.9406 10.2373L36.1005 10.2546C36.8685 10.2562 37.2518 10.6411 37.2503 11.4091L37.2483 12.4651C37.2468 13.2331 36.8621 13.6162 36.0941 13.6146L33.9341 13.61ZM31.9773 7.74988C29.8654 7.7454 28.2365 6.10994 28.2403 4.14195C28.244 2.22195 29.8791 0.59341 31.9911 0.597886C33.9591 0.602057 35.6839 2.23772 35.6803 4.15771C35.6765 6.12571 33.9453 7.75405 31.9773 7.74988ZM52.2693 34.7209C54.8133 34.7263 56.8307 34.0106 58.2254 32.6216C59.6201 31.1845 60.3433 29.506 60.3471 27.538C60.3509 25.57 59.6341 23.8885 58.2449 22.4456C56.8557 21.0026 54.8411 20.2784 52.2971 20.273C49.9931 20.2681 48.1677 20.9842 46.8689 22.4215C45.5702 23.8587 44.8949 25.5373 44.8912 27.5053C44.8874 29.4733 45.5561 31.1547 46.8494 32.5974C48.1427 33.9922 49.9653 34.7161 52.2693 34.7209ZM63.9255 13.8176L63.89 32.2976C63.8864 34.1696 64.4133 34.7467 65.6133 34.7492L66.3335 34.6547C66.7176 34.5596 66.9094 34.704 66.9085 35.136L66.9057 36.624C66.9043 37.344 66.5195 37.7751 65.799 38.0136C65.3668 38.1087 64.8387 38.1556 64.1667 38.1542C61.8147 38.1492 60.522 36.4664 60.5272 33.7304L60.5275 33.5864L60.3835 33.5861C60.239 33.8258 60.2384 34.1618 59.3245 35.1679C58.2178 36.5576 55.8629 38.0406 51.9748 38.1283C48.7588 38.1215 46.1207 37.1079 44.0607 35.0395C42.0486 32.9713 41.0455 30.4251 41.0514 27.4012C41.057 24.4732 42.0698 21.9793 44.0897 19.9196C46.1577 17.8599 48.7996 16.8575 52.0636 16.8645C55.5196 16.8718 58.3487 18.3658 59.2585 19.5197L59.9289 20.3851L60.1209 20.3855L60.1327 14.2416C60.1432 8.76957 57.6525 6.02829 52.6605 6.01771C48.1005 6.00804 45.6002 8.21075 45.1598 12.6258C45.1102 13.4417 44.6775 13.7768 43.9579 13.5833L42.6626 13.2445C41.9429 13.051 41.6559 12.5704 41.7052 11.8505C42.1971 5.65953 45.899 2.59537 52.763 2.60991C60.203 2.62568 63.9398 6.37761 63.9255 13.8176ZM90.6525 36.6743L90.6934 15.4103C90.7053 9.21834 88.1673 6.09296 83.1273 6.08227C77.1753 6.06966 75.0034 12.2571 74.9972 15.4731L74.9565 36.641C74.9551 37.409 74.5703 37.7922 73.8023 37.7906L72.3143 37.7874C71.5463 37.7858 71.1631 37.401 71.1645 36.633L71.2269 4.18505C71.2284 3.41705 71.6131 3.03386 72.3811 3.03549L73.5331 3.03793C74.3011 3.03956 74.6844 3.42438 74.6829 4.19237L74.6743 8.65636L74.8663 8.65677C75.3015 6.97769 77.5658 2.66248 83.9498 2.67601C87.6458 2.68384 90.3317 3.79354 92.0073 6.05309C93.6831 8.26465 94.4936 11.1464 94.4866 14.7464L94.4445 36.6823C94.443 37.4503 94.0583 37.8335 93.2903 37.8319L91.8023 37.8287C91.0343 37.8271 90.651 37.4423 90.6525 36.6743ZM125.292 20.6677C125.269 32.9556 121.371 38.2754 112.539 38.2567C103.707 38.238 99.8289 32.9017 99.8525 20.6138C99.8762 8.27777 103.823 2.71813 112.607 2.73674C121.391 2.75536 125.316 8.33169 125.292 20.6677ZM103.692 20.6219C103.673 30.5579 106.353 34.8356 112.545 34.8487C118.737 34.8618 121.433 30.5955 121.452 20.6595C121.472 10.6275 118.792 6.15786 112.6 6.14474C106.408 6.13161 103.712 10.5899 103.692 20.6219ZM3.9934 58.0427L3.93529 88.2826L17.3753 88.3111C18.1433 88.3127 18.5265 88.6975 18.525 89.4655L18.523 90.5215C18.5215 91.2895 18.1368 91.6727 17.3688 91.6711L1.28884 91.637C0.520838 91.6354 0.137577 91.2506 0.139053 90.4826L0.201408 58.0346C0.202884 57.2666 0.587621 56.8835 1.35562 56.8851L2.84362 56.8882C3.61161 56.8899 3.99488 57.2747 3.9934 58.0427ZM31.9036 88.6779C36.6556 88.688 38.7722 86.2925 39.162 83.2693C39.2594 82.5495 39.692 82.2144 40.4597 82.36L41.5633 82.6024C42.331 82.748 42.6661 83.2287 42.5206 83.9964C42.2764 86.1559 41.2648 88.0737 39.5336 89.7021C37.8506 91.2825 35.257 92.093 31.801 92.0857C27.721 92.077 24.6997 90.6786 22.9277 88.6109C22.0657 87.553 21.3963 86.2076 20.8714 84.5745C19.8698 81.2604 19.5879 78.0918 19.5968 73.4838C19.6044 69.4998 19.8498 66.7163 20.8157 63.6463C22.2161 59.2333 25.2929 56.7438 31.3413 56.5646C35.0373 56.5725 37.8187 57.9224 39.4947 59.9899C40.3088 60.9996 40.9784 62.2491 41.4554 63.7861C42.4095 66.8601 42.692 69.7407 42.6846 73.5807L42.6836 74.1087C42.683 74.3967 42.5388 74.5404 42.2508 74.5398L23.4348 74.4999C23.4281 78.0039 23.6158 80.2123 24.2348 82.8536C25.2357 86.5038 27.392 88.4763 31.9036 88.6779ZM23.4894 71.092L38.8493 71.1246C38.7653 64.8844 37.2387 59.9851 31.3347 59.9726C28.2627 59.9661 26.1486 61.0656 25.0403 63.3193C24.0282 65.4772 23.6399 67.6843 23.4894 71.092ZM57.7402 88.7807C62.4922 88.7907 64.896 86.7798 64.9038 82.7478C64.9216 73.4838 47.3457 77.5746 47.3689 65.4786C47.3735 63.1266 48.2414 61.0645 49.9728 59.2921C51.7522 57.5199 54.298 56.6133 57.706 56.6205C64.426 56.6348 68.0676 59.9545 68.5853 65.3316C68.6317 66.1477 68.2949 66.579 67.5267 66.6733L66.1823 66.8625C65.4141 66.9569 64.9828 66.62 64.9362 65.8999C64.5116 62.0109 62.1634 60.038 57.7954 60.0287C53.3314 60.0192 51.1668 62.4147 51.1608 65.5347C51.1447 73.9346 68.7676 70.372 68.7431 83.092C68.7381 85.732 67.8699 87.8901 66.0906 89.6144C64.3113 91.3386 61.5256 92.1967 57.6376 92.1884C53.7976 92.1803 50.8238 91.07 49.243 89.3866C47.7103 87.6554 46.9456 85.9738 46.7092 84.0533C46.6148 83.2371 46.9516 82.8058 47.7198 82.7114L49.0162 82.5222C49.8325 82.3799 50.2638 82.7168 50.3583 83.485C50.7844 86.5579 53.1802 88.771 57.7402 88.7807ZM83.5682 88.8354C88.3202 88.8455 90.7241 86.8346 90.7319 82.8026C90.7497 73.5386 73.1738 77.6293 73.197 65.5334C73.2015 63.1814 74.0695 61.1192 75.8009 59.3469C77.5803 57.5746 80.1261 56.668 83.5341 56.6752C90.254 56.6895 93.8957 60.0092 94.4133 65.3863C94.4598 66.2024 94.1229 66.6337 93.3548 66.7281L92.0104 66.9172C91.2422 67.0116 90.8108 66.6747 90.7642 65.9546C90.3397 62.0657 87.9915 60.0927 83.6235 60.0834C79.1595 60.074 76.9949 62.4694 76.9889 65.5894C76.9728 73.9894 94.5956 70.4267 94.5712 83.1467C94.5661 85.7867 93.698 87.9449 91.9187 89.6691C90.1393 91.3933 87.3537 92.2514 83.4657 92.2432C79.6257 92.235 76.6518 91.1247 75.0711 89.4414C73.5384 87.7101 72.7736 86.0285 72.5373 84.108C72.4429 83.2918 72.7797 82.8605 73.5479 82.7661L74.8443 82.5769C75.6605 82.4346 76.0919 82.7715 76.1864 83.5397C76.6125 86.6126 79.0083 88.8257 83.5682 88.8354ZM124.064 74.6652C124.04 86.9532 120.142 92.2729 111.31 92.2542C102.478 92.2355 98.6001 86.8992 98.6237 74.6113C98.6474 62.2753 102.594 56.7156 111.378 56.7343C120.162 56.7529 124.087 62.3292 124.064 74.6652ZM102.464 74.6194C102.445 84.5554 105.124 88.8331 111.316 88.8462C117.508 88.8593 120.205 84.593 120.224 74.657C120.243 64.6251 117.564 60.1554 111.372 60.1423C105.18 60.1291 102.483 64.5874 102.464 74.6194ZM149.142 90.7984L149.183 69.5344C149.195 63.3424 146.657 60.217 141.617 60.2064C135.665 60.1937 133.493 66.3812 133.487 69.5971L133.446 90.7651C133.445 91.5331 133.06 91.9163 132.292 91.9147L130.804 91.9115C130.036 91.9099 129.653 91.5251 129.654 90.7571L129.717 58.3091C129.718 57.5411 130.103 57.1579 130.871 57.1596L132.023 57.162C132.791 57.1636 133.174 57.5485 133.173 58.3165L133.164 62.7804L133.356 62.7808C133.791 61.1018 136.056 56.7866 142.44 56.8001C146.136 56.8079 148.822 57.9176 150.497 60.1772C152.173 62.3887 152.983 65.2705 152.976 68.8704L152.934 90.8064C152.933 91.5744 152.548 91.9576 151.78 91.956L150.292 91.9528C149.524 91.9512 149.141 91.5664 149.142 90.7984ZM169.115 89.0167C173.867 89.0268 176.271 87.0159 176.279 82.9839C176.296 73.7199 158.72 77.8106 158.744 65.7147C158.748 63.3627 159.616 61.3005 161.348 59.5282C163.127 57.7559 165.673 56.8493 169.081 56.8565C175.801 56.8708 179.442 60.1905 179.96 65.5676C180.006 66.3837 179.67 66.815 178.901 66.9094L177.557 67.0985C176.789 67.1929 176.358 66.856 176.311 66.1359C175.886 62.247 173.538 60.274 169.17 60.2647C164.706 60.2553 162.542 62.6507 162.536 65.7707C162.519 74.1707 180.142 70.608 180.118 83.328C180.113 85.968 179.245 88.1262 177.465 89.8504C175.686 91.5746 172.9 92.4327 169.012 92.4245C165.172 92.4163 162.199 91.306 160.618 89.6227C159.085 87.8914 158.32 86.2098 158.084 84.2893C157.99 83.4731 158.326 83.0418 159.095 82.9474L160.391 82.7582C161.207 82.6159 161.639 82.9528 161.733 83.721C162.159 86.7939 164.555 89.007 169.115 89.0167Z" fill="white"/>
</svg>
