<svg width="170" height="92" viewBox="0 0 170 92" fill="none" xmlns="http://www.w3.org/2000/svg">
<path d="M21.3622 29.1083L21.4032 7.74831C21.4047 6.98031 21.7895 6.59713 22.5575 6.59875L24.0455 6.60191C24.8135 6.60354 25.1967 6.98835 25.1952 7.75635L25.1535 29.4523C25.1389 37.0843 21.1939 41.7319 13.37 41.7154C5.54597 41.6988 1.66693 37.0346 1.6816 29.4026L1.72329 7.7066C1.72476 6.93861 2.1095 6.55542 2.8775 6.55705L4.3655 6.5602C5.1335 6.56183 5.51676 6.94664 5.51528 7.71464L5.47423 29.0746C5.46353 34.6426 8.38452 38.2968 13.3765 38.3074C18.3685 38.3179 21.3515 34.6763 21.3622 29.1083ZM53.7577 7.67288L41.8717 23.2477L54.0307 40.4575C54.3659 40.8902 54.1249 41.4177 53.5489 41.4165L51.2929 41.4117C50.5729 41.4102 49.9495 41.0729 49.4707 40.4479L39.562 26.2188L35.6642 31.3466L35.6471 40.2266C35.6456 40.9946 35.2609 41.3778 34.4929 41.3761L32.9569 41.3729C32.1889 41.3712 31.8056 40.9864 31.8071 40.2184L31.8695 7.77049C31.8709 7.00249 32.2557 6.61931 33.0237 6.62094L34.5597 6.62419C35.3277 6.62582 35.7109 7.01063 35.7095 7.77863L35.674 26.2106L49.2939 7.56742C49.7271 6.94434 50.3036 6.65756 51.1196 6.65929L53.3756 6.66407C53.9516 6.66529 54.0944 7.28959 53.7577 7.67288ZM62.2808 7.83494L62.2399 29.0989C62.228 35.2909 64.718 38.4162 69.758 38.4269C75.71 38.4395 77.7858 32.2999 77.8881 29.0361L77.9287 7.86811C77.9302 7.10011 78.315 6.71692 79.083 6.71855L80.571 6.7217C81.339 6.72333 81.7222 7.10815 81.7207 7.87614L81.6584 40.3241C81.6569 41.0921 81.2722 41.4753 80.5042 41.4736L79.3522 41.4712C78.5842 41.4696 78.2009 41.0848 78.2024 40.3168L78.211 35.8528L78.019 35.8524C77.5837 37.5314 75.3194 41.8467 68.9355 41.8331C65.2395 41.8253 62.5536 40.7156 60.8778 38.504C59.2502 36.2446 58.4397 33.3629 58.4466 29.7629L58.4888 7.82691C58.4903 7.05891 58.875 6.67572 59.643 6.67735L61.131 6.6805C61.899 6.68213 62.2823 7.06695 62.2808 7.83494ZM88.577 37.4587L88.6454 1.8908C88.6469 1.12281 89.0316 0.739621 89.7996 0.741249L91.2876 0.744402C92.0556 0.74603 92.4388 1.13084 92.4374 1.89884L92.3709 36.5068C92.368 37.9948 92.8951 38.4759 94.0471 38.4783C94.2871 38.4788 94.5272 38.4314 94.7673 38.3839C95.1994 38.3368 95.3911 38.4812 95.3903 38.8652L95.3874 40.4012C95.386 41.1212 95.0011 41.6004 94.2808 41.7428C93.8966 41.838 93.3685 41.8849 92.6965 41.8835C89.9605 41.8777 88.5714 40.3867 88.577 37.4587ZM111.197 38.5147C115.949 38.5248 118.065 36.1292 118.455 33.1061C118.552 32.3863 118.985 32.0512 119.753 32.1968L120.856 32.4391C121.624 32.5848 121.959 33.0655 121.814 33.8332C121.569 35.9927 120.558 37.9105 118.827 39.5389C117.144 41.1193 114.55 41.9298 111.094 41.9225C107.014 41.9138 103.993 40.5154 102.221 38.4477C101.359 37.3898 100.689 36.0444 100.164 34.4113C99.1628 31.0972 98.8809 27.9286 98.8897 23.3206C98.8974 19.3366 99.1427 16.5531 100.109 13.4831C101.509 9.07008 104.586 6.5806 110.634 6.40142C114.33 6.40925 117.112 7.75915 118.788 9.82671C119.602 10.8364 120.271 12.0859 120.748 13.6229C121.702 16.6969 121.985 19.5775 121.978 23.4175L121.977 23.9455C121.976 24.2335 121.832 24.3772 121.544 24.3766L102.728 24.3367C102.721 27.8407 102.909 30.0491 103.528 32.6904C104.529 36.3405 106.685 38.3131 111.197 38.5147ZM102.782 20.9288L118.142 20.9614C118.058 14.7212 116.532 9.82192 110.628 9.80941C107.556 9.8029 105.442 10.9024 104.333 13.1561C103.321 15.3139 102.933 17.5211 102.782 20.9288ZM127.483 37.5412L127.552 1.97326C127.553 1.20526 127.938 0.822076 128.706 0.823703L130.194 0.826857C130.962 0.828485 131.345 1.2133 131.344 1.9813L131.277 36.5892C131.274 38.0772 131.801 38.5583 132.953 38.5608C133.193 38.5613 133.433 38.5138 133.673 38.4663C134.106 38.4192 134.297 38.5636 134.297 38.9476L134.294 40.4836C134.292 41.2036 133.907 41.6828 133.187 41.8253C132.803 41.9205 132.275 41.9674 131.603 41.9659C128.867 41.9601 127.478 40.4692 127.483 37.5412ZM150.103 38.5971C154.855 38.6072 156.971 36.2117 157.361 33.1885C157.458 32.4687 157.891 32.1336 158.659 32.2793L159.762 32.5216C160.53 32.6672 160.865 33.1479 160.72 33.9156C160.476 36.0751 159.464 37.993 157.733 39.6213C156.05 41.2017 153.456 42.0123 150 42.0049C145.92 41.9963 142.899 40.5979 141.127 38.5301C140.265 37.4723 139.595 36.1269 139.071 34.4937C138.069 31.1796 137.787 28.011 137.796 23.403C137.804 19.419 138.049 16.6355 139.015 13.5656C140.415 9.15254 143.492 6.66305 149.54 6.48387C153.236 6.4917 156.018 7.8416 157.694 9.90916C158.508 10.9189 159.178 12.1683 159.655 13.7053C160.609 16.7794 160.891 19.66 160.884 23.4999L160.883 24.0279C160.882 24.3159 160.738 24.4596 160.45 24.459L141.634 24.4192C141.627 27.9231 141.815 30.1316 142.434 32.7729C143.435 36.423 145.591 38.3956 150.103 38.5971ZM141.688 21.0113L157.048 21.0438C156.964 14.8036 155.438 9.90438 149.534 9.89187C146.462 9.88536 144.348 10.9849 143.239 13.2385C142.227 15.3964 141.839 17.6036 141.688 21.0113ZM12.6103 87.3059C17.3143 87.3158 19.8152 84.7771 20.113 79.6897C20.1625 78.9218 20.5951 78.5868 21.3628 78.7324L22.8024 78.9754C23.5221 79.121 23.9053 79.5538 23.8558 80.3217C23.7056 83.5374 22.7407 86.0793 21.0571 87.9478C19.3735 89.8162 16.5878 90.7223 12.6038 90.7138C8.5238 90.7052 5.64612 89.4991 3.92172 87.6234C3.05947 86.7096 2.38987 85.4602 1.91282 83.9232C0.958822 80.8011 0.724449 77.8726 0.733397 73.2167C0.741237 69.1367 0.938587 66.3531 1.90495 63.0431C2.8715 59.6372 4.45937 57.6245 7.39004 56.2387C8.87942 55.5219 10.6081 55.1895 12.6721 55.1939C14.736 55.1983 16.4635 55.4899 17.9505 56.0211C22.363 57.8545 23.4606 61.1688 23.9323 65.4898C23.9785 66.4019 23.786 66.6895 22.8736 66.8796L21.337 67.2123C20.6167 67.3548 20.1853 67.0659 20.1386 66.3458C19.8605 61.2092 17.3695 58.6119 12.6655 58.6019C9.35351 58.5949 7.28684 59.9825 6.22651 62.2363C5.45528 63.9146 5.06898 65.1138 4.82464 67.3693C4.58031 69.6248 4.57791 70.8728 4.57339 73.2248C4.57016 74.9048 4.56767 76.2008 4.61373 77.2089C4.75404 79.1292 4.94051 82.0096 5.65783 83.4031C6.80531 85.7575 8.57835 87.2973 12.6103 87.3059ZM29.2799 86.3332L29.3482 50.7652C29.3497 49.9972 29.7344 49.6141 30.5024 49.6157L31.9904 49.6188C32.7584 49.6205 33.1417 50.0053 33.1402 50.7733L33.0737 85.3812C33.0708 86.8692 33.5979 87.3503 34.7499 87.3528C34.9899 87.3533 35.23 87.3058 35.4701 87.2583C35.9022 87.2112 36.0939 87.3556 36.0932 87.7396L36.0902 89.2756C36.0888 89.9956 35.7039 90.4748 34.9836 90.6173C34.5995 90.7125 34.0714 90.7593 33.3994 90.7579C30.6634 90.7521 29.2742 89.2612 29.2799 86.3332ZM50.4114 87.386C52.9554 87.3914 54.9728 86.6756 56.3674 85.2866C57.7622 83.8495 58.4854 82.1711 58.4892 80.2031C58.493 78.2351 57.7762 76.5536 56.387 75.1106C54.9978 73.6677 52.9831 72.9434 50.4391 72.938C48.1352 72.9331 46.3098 73.6492 45.011 75.0865C43.7122 76.5237 43.037 78.2023 43.0332 80.1703C43.0295 82.1383 43.6982 83.8197 44.9915 85.2625C46.2848 86.6572 48.1074 87.3811 50.4114 87.386ZM62.0676 66.4826L62.0321 84.9626C62.0285 86.8346 62.5554 87.4117 63.7554 87.4142L64.4755 87.3198C64.8597 87.2246 65.0514 87.369 65.0506 87.801L65.0478 89.289C65.0464 90.009 64.6615 90.4402 63.9411 90.6786C63.5089 90.7737 62.9808 90.8206 62.3088 90.8192C59.9568 90.8142 58.664 89.1315 58.6693 86.3955L58.6696 86.2515L58.5256 86.2512C58.3811 86.4909 58.3805 86.8269 57.4665 87.8329C56.3599 89.2226 54.005 90.7056 50.1168 90.7934C46.9008 90.7865 44.2628 89.7729 42.2028 87.7046C40.1907 85.6363 39.1876 83.0902 39.1934 80.0662C39.1991 77.1382 40.2119 74.6443 42.2318 72.5846C44.2998 70.525 46.9417 69.5226 50.2057 69.5295C53.6617 69.5368 56.4908 71.0308 57.4006 72.1847L58.0709 73.0502L58.2629 73.0506L58.2748 66.9066C58.2853 61.4346 55.7945 58.6933 50.8025 58.6827C46.2426 58.6731 43.7423 60.8758 43.3018 65.2909C43.2523 66.1067 42.8196 66.4418 42.1 66.2483L40.8046 65.9096C40.085 65.716 39.7979 65.2354 39.8473 64.5155C40.3392 58.3246 44.0411 55.2604 50.9051 55.2749C58.3451 55.2907 62.0819 59.0426 62.0676 66.4826ZM78.8141 87.4942C83.5661 87.5042 85.97 85.4933 85.9777 81.4613C85.9955 72.1973 68.4196 76.2881 68.4429 64.1921C68.4474 61.8401 69.3153 59.778 71.0468 58.0056C72.8262 56.2334 75.3719 55.3268 78.7799 55.334C85.4999 55.3483 89.1415 58.668 89.6592 64.0451C89.7056 64.8612 89.3688 65.2925 88.6006 65.3869L87.2562 65.576C86.4881 65.6704 86.0567 65.3335 86.0101 64.6134C85.5856 60.7245 83.2373 58.7515 78.8694 58.7422C74.4054 58.7328 72.2408 61.1282 72.2348 64.2482C72.2186 72.6482 89.8415 69.0855 89.8171 81.8055C89.812 84.4455 88.9438 86.6036 87.1645 88.3279C85.3852 90.0521 82.5995 90.9102 78.7116 90.902C74.8716 90.8938 71.8977 89.7835 70.3169 88.1002C68.7842 86.3689 68.0195 84.6873 67.7832 82.7668C67.6887 81.9506 68.0256 81.5193 68.7938 81.4249L70.0901 81.2357C70.9064 81.0934 71.3377 81.4303 71.4323 82.1985C71.8584 85.2714 74.2541 87.4845 78.8141 87.4942ZM104.642 87.5489C109.394 87.559 111.798 85.5481 111.806 81.5161C111.824 72.2521 94.2477 76.3428 94.2709 64.2469C94.2755 61.8949 95.1434 59.8327 96.8748 58.0604C98.6542 56.2881 101.2 55.3815 104.608 55.3888C111.328 55.403 114.97 58.7227 115.487 64.0998C115.534 64.9159 115.197 65.3472 114.429 65.4416L113.084 65.6307C112.316 65.7251 111.885 65.3882 111.838 64.6681C111.414 60.7792 109.065 58.8062 104.697 58.797C100.233 58.7875 98.0688 61.1829 98.0628 64.3029C98.0467 72.7029 115.67 69.1402 115.645 81.8602C115.64 84.5002 114.772 86.6584 112.993 88.3826C111.213 90.1068 108.428 90.9649 104.54 90.9567C100.7 90.9486 97.7258 89.8382 96.145 88.1549C94.6123 86.4236 93.8475 84.742 93.6112 82.8215C93.5168 82.0053 93.8536 81.574 94.6218 81.4796L95.9182 81.2904C96.7345 81.1481 97.1658 81.485 97.2603 82.2532C97.6864 85.3262 100.082 87.5392 104.642 87.5489ZM132.102 87.5591C136.854 87.5692 138.971 85.1736 139.361 82.1505C139.458 81.4307 139.891 81.0956 140.658 81.2412L141.762 81.4836C142.53 81.6292 142.865 82.1099 142.719 82.8776C142.475 85.0371 141.464 86.9549 139.732 88.5833C138.049 90.1637 135.456 90.9742 132 90.9669C127.92 90.9582 124.898 89.5598 123.126 87.4921C122.264 86.4342 121.595 85.0888 121.07 83.4557C120.069 80.1416 119.787 76.973 119.796 72.365C119.803 68.381 120.049 65.5975 121.014 62.5275C122.415 58.1145 125.492 55.625 131.54 55.4458C135.236 55.4537 138.017 56.8036 139.693 58.8711C140.508 59.8808 141.177 61.1303 141.654 62.6673C142.608 65.7413 142.891 68.6219 142.883 72.4619L142.882 72.9899C142.882 73.2779 142.738 73.4216 142.45 73.421L123.634 73.3811C123.627 76.8851 123.815 79.0935 124.434 81.7348C125.434 85.385 127.591 87.3575 132.102 87.5591ZM123.688 69.9732L139.048 70.0058C138.964 63.7656 137.437 58.8663 131.533 58.8538C128.461 58.8473 126.347 59.9468 125.239 62.2005C124.227 64.3584 123.839 66.5655 123.688 69.9732ZM157.939 87.6619C162.691 87.6719 165.095 85.661 165.103 81.629C165.12 72.365 147.544 76.4558 147.568 64.3598C147.572 62.0078 148.44 59.9457 150.172 58.1733C151.951 56.4011 154.497 55.4945 157.905 55.5017C164.625 55.5159 168.266 58.8357 168.784 64.2128C168.83 65.0289 168.494 65.4602 167.725 65.5545L166.381 65.7437C165.613 65.8381 165.182 65.5012 165.135 64.7811C164.71 60.8921 162.362 58.9192 157.994 58.9099C153.53 58.9004 151.366 61.2959 151.36 64.4159C151.343 72.8158 168.966 69.2532 168.942 81.9732C168.937 84.6132 168.069 86.7713 166.289 88.4956C164.51 90.2198 161.724 91.0779 157.836 91.0696C153.996 91.0615 151.023 89.9512 149.442 88.2678C147.909 86.5366 147.144 84.855 146.908 82.9345C146.814 82.1183 147.15 81.687 147.919 81.5926L149.215 81.4033C150.031 81.2611 150.463 81.598 150.557 82.3662C150.983 85.4391 153.379 87.6522 157.939 87.6619Z" fill="#FFB800"/>
</svg>
