<svg width="171" height="97" viewBox="0 0 171 97" fill="none" xmlns="http://www.w3.org/2000/svg">
<path d="M25.5019 7.48575L15.6474 40.0089C15.406 40.7284 14.9252 41.1114 14.1572 41.1098L12.3812 41.106C11.6132 41.1044 11.134 40.7194 10.8954 39.9989L1.16593 7.43417C0.975039 6.85776 1.26405 6.33038 1.98405 6.3319L3.95205 6.33607C4.72005 6.3377 5.19931 6.72272 5.43792 7.44323L13.3995 35.7802L21.5179 7.4773C21.7593 6.75781 22.24 6.37483 23.008 6.37646L24.688 6.38002C25.408 6.38155 25.647 6.91005 25.5019 7.48575ZM35.2193 17.0584L35.1794 37.7943L37.3394 37.7989C38.1074 37.8005 38.4907 38.1853 38.4892 38.9533L38.4872 40.0093C38.4857 40.7773 38.1009 41.1605 37.3329 41.1589L29.173 41.1416C28.405 41.14 28.0217 40.7552 28.0232 39.9872L28.0252 38.9312C28.0267 38.1632 28.4114 37.78 29.1794 37.7816L31.3874 37.7863L31.4273 17.0503L29.2193 17.0456C28.4513 17.044 28.068 16.6592 28.0695 15.8912L28.0715 14.8352C28.073 14.0672 28.4577 13.684 29.2257 13.6857L37.3857 13.7029C38.1537 13.7046 38.537 14.0894 38.5355 14.8574L38.5335 15.9134C38.532 16.6814 38.1472 17.0646 37.3792 17.0629L35.2193 17.0584ZM33.2625 11.1982C31.1505 11.1937 29.5217 9.55827 29.5254 7.59027C29.5291 5.67028 31.1643 4.04174 33.2763 4.04621C35.2442 4.05039 36.9691 5.68605 36.9654 7.60604C36.9616 9.57404 35.2305 11.2024 33.2625 11.1982ZM68.0777 23.992C68.0541 36.28 64.1559 41.5997 55.3239 41.581C46.4919 41.5623 42.6142 36.2261 42.6378 23.9381C42.6615 11.6021 46.6082 6.04247 55.3922 6.06109C64.1762 6.07971 68.1014 11.656 68.0777 23.992ZM46.4778 23.9462C46.4587 33.8822 49.1385 38.1599 55.3305 38.173C61.5224 38.1862 64.2187 33.9199 64.2377 23.9839C64.257 13.9519 61.5776 9.48221 55.3856 9.46909C49.1936 9.45596 46.4971 13.9143 46.4778 23.9462ZM73.626 37.2038L73.6943 1.63587C73.6958 0.867871 74.0805 0.484685 74.8485 0.486312L76.3365 0.489466C77.1045 0.491094 77.4878 0.875907 77.4863 1.6439L77.4198 36.2518C77.417 37.7398 77.944 38.221 79.096 38.2234C79.336 38.2239 79.5761 38.1764 79.8162 38.1289C80.2483 38.0818 80.44 38.2262 80.4393 38.6102L80.4363 40.1462C80.435 40.8662 80.05 41.3454 79.3298 41.4879C78.9456 41.5831 78.4175 41.63 77.7455 41.6285C75.0095 41.6227 73.6204 40.1318 73.626 37.2038ZM90.766 17.1761L90.7262 37.912L92.8862 37.9166C93.6541 37.9183 94.0374 38.3031 94.0359 39.0711L94.0339 40.1271C94.0324 40.8951 93.6477 41.2782 92.8797 41.2766L84.7197 41.2593C83.9517 41.2577 83.5685 40.8729 83.5699 40.1049L83.572 39.0489C83.5734 38.2809 83.9582 37.8977 84.7262 37.8993L86.9342 37.904L86.974 17.168L84.766 17.1634C83.998 17.1617 83.6148 16.7769 83.6162 16.0089L83.6183 14.9529C83.6197 14.1849 84.0045 13.8017 84.7725 13.8034L92.9325 13.8207C93.7005 13.8223 94.0837 14.2071 94.0822 14.9751L94.0802 16.0311C94.0787 16.7991 93.694 17.1823 92.926 17.1807L90.766 17.1761ZM88.8093 11.3159C86.6973 11.3114 85.0684 9.67599 85.0722 7.70799C85.0759 5.788 86.711 4.15946 88.823 4.16394C90.791 4.16811 92.5159 5.80377 92.5122 7.72376C92.5084 9.69176 90.7773 11.3201 88.8093 11.3159ZM118.938 40.1798L118.978 18.9159C118.99 12.7239 116.452 9.59851 111.412 9.58782C105.46 9.57521 103.288 15.7626 103.282 18.9786L103.242 40.1466C103.24 40.9146 102.855 41.2978 102.087 41.2961L100.599 41.293C99.8314 41.2914 99.4482 40.9065 99.4496 40.1385L99.512 7.6906C99.5135 6.9226 99.8982 6.53941 100.666 6.54104L101.818 6.54348C102.586 6.54511 102.969 6.92992 102.968 7.69792L102.959 12.1619L103.151 12.1623C103.587 10.4832 105.851 6.16803 112.235 6.18156C115.931 6.18939 118.617 7.29909 120.292 9.55864C121.968 11.7702 122.779 14.6519 122.772 18.2519L122.73 40.1879C122.728 40.9559 122.343 41.3391 121.575 41.3374L120.087 41.3343C119.319 41.3327 118.936 40.9478 118.938 40.1798ZM13.9134 93.0854C18.6174 93.0953 21.1182 90.5566 21.416 85.4693C21.4655 84.7014 21.8981 84.3663 22.6659 84.5119L24.1054 84.755C24.8251 84.9005 25.2083 85.3333 25.1588 86.1012C25.0086 89.3169 24.0437 91.8588 22.3601 93.7273C20.6766 95.5957 17.8908 96.5018 13.9068 96.4934C9.82682 96.4847 6.94913 95.2786 5.22473 93.403C4.36249 92.4891 3.69289 91.2397 3.21584 89.7027C2.26184 86.5807 2.02747 83.6522 2.03641 78.9962C2.04425 74.9162 2.2416 72.1326 3.20797 68.8226C4.17451 65.4167 5.76238 63.404 8.69305 62.0182C10.1824 61.3014 11.9111 60.9691 13.9751 60.9734C16.0391 60.9778 17.7665 61.2695 19.2535 61.8006C23.666 63.634 24.7636 66.9483 25.2353 71.2693C25.2816 72.1814 25.089 72.469 24.1766 72.6591L22.64 72.9918C21.9197 73.1343 21.4883 72.8454 21.4417 72.1253C21.1635 66.9887 18.6725 64.3914 13.9685 64.3814C10.6565 64.3744 8.58986 65.762 7.52953 68.0158C6.7583 69.6942 6.37199 70.8933 6.12766 73.1488C5.88332 75.4043 5.88093 76.6523 5.87641 79.0043C5.87318 80.6843 5.87069 81.9803 5.91675 82.9884C6.05706 84.9087 6.24352 87.7891 6.96085 89.1826C8.10833 91.5371 9.88137 93.0768 13.9134 93.0854ZM30.5829 92.1127L30.6512 56.5448C30.6527 55.7768 31.0374 55.3936 31.8054 55.3952L33.2934 55.3984C34.0614 55.4 34.4447 55.7848 34.4432 56.5528L34.3767 91.1607C34.3739 92.6487 34.9009 93.1299 36.0529 93.1323C36.2929 93.1328 36.533 93.0853 36.7731 93.0378C37.2052 92.9907 37.3969 93.1351 37.3962 93.5191L37.3932 95.0551C37.3919 95.7751 37.0069 96.2543 36.2867 96.3968C35.9025 96.492 35.3744 96.5389 34.7024 96.5374C31.9664 96.5316 30.5773 95.0407 30.5829 92.1127ZM51.7144 93.1655C54.2584 93.1709 56.2758 92.4552 57.6704 91.0661C59.0652 89.6291 59.7884 87.9506 59.7922 85.9826C59.796 84.0146 59.0792 82.3331 57.69 80.8901C56.3008 79.4472 54.2862 78.7229 51.7422 78.7175C49.4382 78.7126 47.6128 79.4288 46.314 80.866C45.0153 82.3033 44.34 83.9818 44.3363 85.9498C44.3325 87.9178 45.0012 89.5993 46.2945 91.042C47.5878 92.4367 49.4104 93.1606 51.7144 93.1655ZM63.3706 72.2621L63.3351 90.7421C63.3315 92.6141 63.8584 93.1912 65.0584 93.1938L65.7786 93.0993C66.1627 93.0041 66.3545 93.1485 66.3536 93.5805L66.3508 95.0685C66.3494 95.7885 65.9646 96.2197 65.2441 96.4582C64.8119 96.5533 64.2838 96.6001 63.6118 96.5987C61.2598 96.5937 59.9671 94.911 59.9723 92.175L59.9726 92.031L59.8286 92.0307C59.6841 92.2704 59.6835 92.6064 58.7696 93.6124C57.6629 95.0021 55.308 96.4851 51.4199 96.5729C48.2039 96.5661 45.5658 95.5525 43.5058 93.4841C41.4937 91.4158 40.4906 88.8697 40.4964 85.8457C40.5021 82.9177 41.5149 80.4238 43.5348 78.3641C45.6028 76.3045 48.2447 75.3021 51.5087 75.309C54.9647 75.3163 57.7938 76.8103 58.7036 77.9643L59.374 78.8297L59.566 78.8301L59.5778 72.6861C59.5883 67.2141 57.0976 64.4728 52.1056 64.4623C47.5456 64.4526 45.0453 66.6553 44.6048 71.0704C44.5553 71.8863 44.1226 72.2214 43.403 72.0278L42.1077 71.6891C41.388 71.4956 41.1009 71.0149 41.1503 70.2951C41.6422 64.1041 45.3441 61.0399 52.2081 61.0545C59.6481 61.0702 63.3849 64.8222 63.3706 72.2621ZM80.1171 93.2737C84.8691 93.2838 87.273 91.2728 87.2807 87.2409C87.2985 77.9769 69.7226 82.0676 69.7459 69.9717C69.7504 67.6197 70.6184 65.5575 72.3498 63.7852C74.1292 62.0129 76.6749 61.1063 80.0829 61.1135C86.8029 61.1278 90.4445 64.4475 90.9622 69.8246C91.0086 70.6407 90.6718 71.072 89.9036 71.1664L88.5593 71.3555C87.7911 71.4499 87.3597 71.113 87.3131 70.3929C86.8886 66.504 84.5404 64.531 80.1724 64.5217C75.7084 64.5123 73.5438 66.9077 73.5378 70.0277C73.5216 78.4277 91.1445 74.865 91.1201 87.585C91.115 90.225 90.2469 92.3832 88.4675 94.1074C86.6882 95.8316 83.9026 96.6897 80.0146 96.6815C76.1746 96.6733 73.2007 95.563 71.6199 93.8797C70.0873 92.1484 69.3225 90.4668 69.0862 88.5463C68.9918 87.7301 69.3286 87.2988 70.0968 87.2044L71.3931 87.0152C72.2094 86.8729 72.6408 87.2098 72.7353 87.978C73.1614 91.0509 75.5571 93.264 80.1171 93.2737ZM105.945 93.3284C110.697 93.3385 113.101 91.3276 113.109 87.2956C113.127 78.0316 95.5507 82.1224 95.574 70.0264C95.5785 67.6744 96.4464 65.6122 98.1778 63.8399C99.9573 62.0677 102.503 61.1611 105.911 61.1683C112.631 61.1825 116.273 64.5022 116.79 69.8794C116.837 70.6955 116.5 71.1267 115.732 71.2211L114.387 71.4103C113.619 71.5046 113.188 71.1677 113.141 70.4476C112.717 66.5587 110.368 64.5857 106 64.5765C101.536 64.567 99.3718 66.9624 99.3658 70.0824C99.3497 78.4824 116.973 74.9198 116.948 87.6397C116.943 90.2797 116.075 92.4379 114.296 94.1621C112.516 95.8864 109.731 96.7445 105.843 96.7362C102.003 96.7281 99.0288 95.6178 97.448 93.9344C95.9153 92.2032 95.1506 90.5215 94.9143 88.601C94.8198 87.7848 95.1567 87.3535 95.9248 87.2592L97.2212 87.0699C98.0375 86.9277 98.4688 87.2646 98.5634 88.0328C98.9894 91.1057 101.385 93.3188 105.945 93.3284ZM133.405 93.3386C138.157 93.3487 140.274 90.9532 140.664 87.93C140.761 87.2102 141.194 86.8751 141.962 87.0207L143.065 87.2631C143.833 87.4087 144.168 87.8894 144.022 88.6571C143.778 90.8166 142.767 92.7345 141.035 94.3628C139.352 95.9432 136.759 96.7537 133.303 96.7464C129.223 96.7378 126.201 95.3394 124.429 93.2716C123.567 92.2138 122.898 90.8683 122.373 89.2352C121.372 85.9211 121.09 82.7525 121.099 78.1445C121.106 74.1605 121.352 71.377 122.317 68.3071C123.718 63.894 126.795 61.4045 132.843 61.2254C136.539 61.2332 139.32 62.5831 140.996 64.6506C141.811 65.6604 142.48 66.9098 142.957 68.4468C143.911 71.5208 144.194 74.4014 144.186 78.2414L144.185 78.7694C144.185 79.0574 144.041 79.2011 143.753 79.2005L124.937 79.1606C124.93 82.6646 125.118 84.873 125.737 87.5144C126.738 91.1645 128.894 93.1371 133.405 93.3386ZM124.991 75.7527L140.351 75.7853C140.267 69.5451 138.74 64.6459 132.837 64.6334C129.765 64.6268 127.65 65.7264 126.542 67.98C125.53 70.1379 125.142 72.3451 124.991 75.7527ZM159.242 93.4414C163.994 93.4514 166.398 91.4405 166.406 87.4085C166.423 78.1446 148.847 82.2353 148.871 70.1393C148.875 67.7873 149.743 65.7252 151.475 63.9528C153.254 62.1806 155.8 61.274 159.208 61.2812C165.928 61.2955 169.569 64.6152 170.087 69.9923C170.133 70.8084 169.797 71.2397 169.028 71.3341L167.684 71.5232C166.916 71.6176 166.485 71.2807 166.438 70.5606C166.013 66.6717 163.665 64.6987 159.297 64.6894C154.833 64.68 152.669 67.0754 152.663 70.1954C152.646 78.5954 170.269 75.0327 170.245 87.7527C170.24 90.3927 169.372 92.5508 167.592 94.2751C165.813 95.9993 163.027 96.8574 159.139 96.8492C155.299 96.841 152.326 95.7307 150.745 94.0474C149.212 92.3161 148.447 90.6345 148.211 88.714C148.117 87.8978 148.453 87.4665 149.222 87.3721L150.518 87.1829C151.334 87.0406 151.766 87.3775 151.86 88.1457C152.286 91.2186 154.682 93.4317 159.242 93.4414Z" fill="white"/>
</svg>
