<svg width="434" height="52" viewBox="0 0 434 52" fill="none" xmlns="http://www.w3.org/2000/svg">
<path d="M36.2338 48.4749L27.5412 11.1453L18.6339 48.4394C18.4397 49.527 17.7987 50.0377 16.7107 50.0355L14.4707 50.031C13.3827 50.0288 12.7437 49.5155 12.5536 48.5551L1.05722 5.13984C0.866775 4.37145 1.25219 3.66823 2.21219 3.67016L4.51619 3.67481C5.54019 3.67688 6.17928 4.12617 6.3696 4.95855L15.829 42.9297L24.7373 5.12362C24.9312 4.16402 25.5721 3.71731 26.5961 3.71937L28.1321 3.72247C29.0921 3.72441 29.7311 4.2377 30.049 5.26234L39.2529 42.977L48.481 5.29954C48.8031 4.27619 49.4441 3.76548 50.4041 3.76742L52.5801 3.77181C53.5401 3.77375 53.9227 4.47852 53.7291 5.24613L42.3776 48.6153C42.1836 49.5749 41.5426 50.0856 40.4546 50.0834L38.1506 50.0788C37.0626 50.0766 36.4236 49.5633 36.2338 48.4749ZM73.2457 46.1176C79.5817 46.1304 82.4041 42.9361 82.9243 38.9051C83.0542 37.9454 83.6311 37.4985 84.6547 37.6926L86.1261 38.0156C87.1497 38.2096 87.5964 38.8506 87.4023 39.8742C87.0765 42.7535 85.7273 45.3108 83.4189 47.4821C81.1747 49.5896 77.7165 50.6706 73.1085 50.6613C67.6685 50.6504 63.6403 48.7862 61.2778 46.0295C60.1287 44.6191 59.2363 42.8253 58.5367 40.6479C57.2016 36.2292 56.8261 32.0044 56.8385 25.8605C56.8492 20.5485 57.1767 16.8371 58.465 12.7437C60.3329 6.85946 64.4356 3.53973 72.5001 3.30001C77.4281 3.30995 81.1365 5.10944 83.3709 7.86596C84.4562 9.21215 85.3488 10.878 85.9847 12.9272C87.2564 17.0258 87.6327 20.8666 87.6223 25.9866L87.6209 26.6906C87.6201 27.0746 87.4278 27.2662 87.0438 27.2654L61.9558 27.2148C61.9464 31.8868 62.1964 34.8313 63.0213 38.353C64.3555 43.2197 67.2302 45.8495 73.2457 46.1176ZM62.029 22.6709L82.5089 22.7122C82.3977 14.392 80.3629 7.85989 72.4909 7.844C68.3949 7.83574 65.576 9.30205 64.0979 12.3071C62.7481 15.1844 62.2301 18.1273 62.029 22.6709ZM107.054 46.2498C113.39 46.2626 116.596 43.5811 116.607 38.2051C116.632 25.8531 93.1966 31.3098 93.2291 15.1819C93.2355 12.0459 94.393 9.2962 96.7018 6.93286C99.0746 4.56964 102.469 3.36049 107.013 3.36966C115.973 3.38774 120.828 7.81355 121.518 14.983C121.579 16.0711 121.13 16.6462 120.106 16.7721L118.313 17.0245C117.289 17.1504 116.714 16.7013 116.652 15.7411C116.087 10.556 112.956 7.92566 107.132 7.91391C101.18 7.9019 98.2934 11.0961 98.285 15.2561C98.2624 26.456 121.76 21.7035 121.726 38.6634C121.719 42.1834 120.561 45.0611 118.188 47.3603C115.816 49.6595 112.101 50.804 106.917 50.7936C101.797 50.7832 97.8323 49.3032 95.7248 47.059C93.6815 44.7508 92.662 42.5088 92.3472 39.9481C92.2214 38.8599 92.6705 38.2848 93.6948 38.1589L95.4233 37.9063C96.5117 37.7165 97.0868 38.1657 97.2127 39.19C97.7804 43.2871 100.974 46.2376 107.054 46.2498ZM134.67 1.88947L134.658 7.39346L145.73 7.4158C146.754 7.41787 147.265 7.9309 147.263 8.9549L147.26 10.3629C147.258 11.3869 146.745 11.8979 145.721 11.8958L134.649 11.8735L134.602 35.1694C134.588 42.5294 137.716 46.2477 143.988 46.2604C144.82 46.262 145.716 46.1999 146.741 46.0099C147.573 45.8196 148.276 46.269 148.274 47.229L148.271 48.765C148.269 49.853 147.756 50.428 146.731 50.5539C145.515 50.7435 144.427 50.8053 143.467 50.8033C134.187 50.7846 129.524 46.0392 129.543 36.6312L129.593 11.8632L126.969 11.858C125.945 11.8559 125.434 11.3429 125.437 10.3189L125.439 8.91086C125.441 7.88686 125.954 7.37589 126.978 7.37796L129.602 7.38326L129.614 1.87927C129.616 0.85527 130.129 0.344303 131.153 0.34637L133.137 0.350373C134.161 0.35244 134.672 0.865473 134.67 1.88947ZM168.075 46.309C174.411 46.3218 177.234 43.1275 177.754 39.0965C177.884 38.1368 178.461 37.6899 179.485 37.884L180.956 38.207C181.979 38.401 182.426 39.0419 182.232 40.0655C181.906 42.9449 180.557 45.5022 178.249 47.6735C176.004 49.781 172.546 50.862 167.938 50.8527C162.498 50.8417 158.47 48.9776 156.108 46.2208C154.958 44.8105 154.066 43.0167 153.366 40.8393C152.031 36.4206 151.656 32.1958 151.668 26.0518C151.679 20.7398 152.007 17.0285 153.295 12.9351C155.163 7.05084 159.265 3.73111 167.33 3.49138C172.258 3.50133 175.966 5.30082 178.201 8.05733C179.286 9.40352 180.179 11.0693 180.814 13.1186C182.086 17.2172 182.462 21.058 182.452 26.1779L182.451 26.8819C182.45 27.2659 182.258 27.4576 181.874 27.4568L156.786 27.4062C156.776 32.0781 157.026 35.0227 157.851 38.5443C159.185 43.411 162.06 46.0408 168.075 46.309ZM156.859 22.8623L177.339 22.9036C177.228 14.5834 175.193 8.05126 167.321 8.03538C163.225 8.02711 160.406 9.49342 158.928 12.4984C157.578 15.3757 157.06 18.3187 156.859 22.8623ZM206.313 8.24207C201.641 8.23264 198.181 10.4657 196.574 13.9824C194.967 17.3712 194.384 20.634 194.377 24.154L194.327 48.858C194.325 49.882 193.812 50.3929 192.788 50.3909L190.74 50.3867C189.716 50.3847 189.205 49.8716 189.207 48.8476L189.295 5.58371C189.297 4.55972 189.81 4.04875 190.834 4.05082L192.37 4.05392C193.394 4.05598 193.905 4.56902 193.903 5.59301L193.889 12.569L194.145 12.5695C194.596 10.8424 195.431 9.18011 197.228 7.13573C199.088 5.02748 202.483 3.56232 206.771 3.57098C207.219 3.57188 207.603 3.63666 208.051 3.70156C208.754 3.76698 209.138 4.21576 209.136 4.98376L209.132 7.09575C209.13 7.92775 208.681 8.31084 207.785 8.30904C207.721 8.30891 207.017 8.24349 206.313 8.24207ZM239.801 48.9497L239.859 20.5978C239.875 12.3418 236.492 8.17497 229.772 8.16141C221.836 8.14539 218.939 16.3956 218.93 20.6836L218.873 48.9075C218.871 49.9315 218.358 50.4425 217.334 50.4404L215.35 50.4364C214.326 50.4343 213.815 49.9213 213.817 48.8973L213.905 5.63338C213.907 4.60938 214.42 4.09842 215.444 4.10048L216.98 4.10358C218.004 4.10565 218.515 4.61868 218.513 5.64268L218.501 11.5947L218.757 11.5952C219.337 9.35635 222.357 3.60243 230.869 3.61961C235.797 3.62956 239.378 5.10879 241.612 8.1213C243.846 11.0698 244.926 14.912 244.916 19.712L244.857 48.9599C244.855 49.9839 244.342 50.4949 243.318 50.4928L241.334 50.4888C240.31 50.4868 239.799 49.9737 239.801 48.9497ZM298.734 49.0687L298.804 14.3167L285.901 33.4907C285.452 34.0658 284.684 34.0643 284.237 33.4874L271.476 14.2616L271.406 49.0135C271.404 50.0375 270.891 50.5485 269.867 50.5464L267.883 50.5424C266.859 50.5403 266.348 50.0273 266.35 49.0033L266.437 5.73939C266.439 4.7154 266.952 4.20443 267.976 4.2065L269.192 4.20895C270.216 4.21102 270.983 4.66057 271.558 5.49373L285.084 26.1291L298.822 5.54875C299.399 4.71792 300.168 4.27146 301.192 4.27353L302.344 4.27586C303.368 4.27792 303.879 4.79096 303.877 5.81495L303.79 49.0789C303.788 50.1029 303.275 50.6138 302.251 50.6118L300.267 50.6078C299.243 50.6057 298.732 50.0927 298.734 49.0687ZM317.283 5.84201L317.226 34.194C317.209 42.4499 320.529 46.6166 327.249 46.6302C335.185 46.6462 337.953 38.4598 338.09 34.1081L338.147 5.88411C338.149 4.86012 338.662 4.34915 339.686 4.35121L341.67 4.35522C342.694 4.35729 343.205 4.87032 343.203 5.89431L343.116 49.1582C343.114 50.1822 342.6 50.6932 341.576 50.6911L340.04 50.688C339.016 50.686 338.506 50.1729 338.508 49.1489L338.52 43.1969L338.264 43.1964C337.683 45.4353 334.663 51.1892 326.151 51.172C321.223 51.1621 317.642 49.6828 315.408 46.7343C313.238 43.7219 312.158 39.8797 312.168 35.0797L312.227 5.8318C312.229 4.80781 312.742 4.29684 313.766 4.29891L315.75 4.30291C316.774 4.30498 317.285 4.81801 317.283 5.84201ZM364.434 46.7692C370.77 46.782 373.975 44.1005 373.986 38.7245C374.011 26.3725 350.576 31.8292 350.609 15.7013C350.615 12.5653 351.773 9.81562 354.081 7.45227C356.454 5.08905 359.849 3.8799 364.392 3.88907C373.352 3.90715 378.208 8.33296 378.897 15.5024C378.959 16.5905 378.51 17.1656 377.485 17.2915L375.693 17.5439C374.669 17.6698 374.094 17.2207 374.032 16.2606C373.466 11.0754 370.335 8.44508 364.511 8.43332C358.559 8.42131 355.673 11.6155 355.664 15.7755C355.642 26.9755 379.14 22.2229 379.105 39.1828C379.098 42.7028 377.94 45.5805 375.568 47.8797C373.195 50.1789 369.481 51.3234 364.297 51.313C359.177 51.3026 355.212 49.8226 353.104 47.5784C351.061 45.2703 350.041 43.0282 349.727 40.4676C349.601 39.3793 350.05 38.8042 351.074 38.6783L352.803 38.4258C353.891 38.236 354.466 38.6851 354.592 39.7094C355.16 43.8065 358.354 46.757 364.434 46.7692ZM393.104 18.667L393.048 46.315L395.928 46.3208C396.952 46.3229 397.463 46.8359 397.461 47.8599L397.458 49.2679C397.456 50.2919 396.943 50.8029 395.919 50.8008L385.039 50.7788C384.015 50.7768 383.504 50.2637 383.507 49.2397L383.509 47.8317C383.511 46.8077 384.024 46.2968 385.048 46.2988L387.992 46.3048L388.048 18.6568L385.104 18.6509C384.08 18.6488 383.569 18.1358 383.571 17.1118L383.574 15.7038C383.576 14.6798 384.089 14.1688 385.113 14.1709L395.993 14.1929C397.017 14.1949 397.528 14.708 397.526 15.732L397.523 17.14C397.521 18.164 397.008 18.6749 395.984 18.6729L393.104 18.667ZM390.496 10.8538C387.68 10.8481 385.508 8.6677 385.514 6.0437C385.519 3.48371 387.699 1.3121 390.515 1.31778C393.139 1.32308 395.439 3.50373 395.434 6.06372C395.428 8.68772 393.12 10.8591 390.496 10.8538ZM418.444 46.8142C424.716 46.8269 428.051 43.4416 428.449 36.6584C428.515 35.8265 429.156 35.1878 430.116 35.3818L432.035 35.7056C433.059 35.8357 433.505 36.4766 433.439 37.6285C433.239 41.8521 431.952 45.1775 429.707 47.669C427.462 50.1604 423.747 51.369 418.435 51.3582C412.995 51.3473 409.159 49.7395 406.86 47.2389C405.71 46.0205 404.817 44.3547 404.182 42.3055C402.91 38.1429 402.598 34.2382 402.61 28.0303C402.621 22.5903 402.885 18.8788 404.174 14.4654C405.979 8.00501 410.146 4.23741 418.531 3.99833C423.779 4.00892 427.552 5.23254 429.787 7.73305C432.022 10.1696 433.296 13.4361 433.543 17.5967C433.605 18.6848 433.156 19.3879 432.131 19.5778L430.083 20.0217C429.122 20.2117 428.547 19.8266 428.485 18.8665C428.115 12.0177 424.794 8.55498 418.522 8.54232C414.106 8.53341 411.35 10.3839 409.936 13.389C408.907 15.6269 408.392 17.2259 408.066 20.2332C407.74 23.2406 407.737 24.9046 407.73 28.0406C407.726 30.2806 407.722 32.0086 407.784 33.3527C407.97 35.9131 408.219 39.7536 409.175 41.6115C410.705 44.7506 413.068 46.8034 418.444 46.8142Z" fill="#FFB800"/>
</svg>
